<svg width="24" height="25" viewBox="0 0 24 25" fill="none" xmlns="http://www.w3.org/2000/svg">
<g clip-path="url(#clip0_1_738)">
<path d="M9.00001 18.4999V19.2499C9.00001 20.0456 9.31608 20.8087 9.87869 21.3713C10.4413 21.9339 11.2044 22.2499 12 22.2499C12.7957 22.2499 13.5587 21.9339 14.1213 21.3713C14.6839 20.8087 15 20.0456 15 19.2499V18.4999M5.26904 10.2499C5.2678 9.36045 5.44262 8.47951 5.78343 7.6579C6.12424 6.83628 6.6243 6.09025 7.25477 5.4628C7.88525 4.83535 8.63368 4.33889 9.45693 4.00204C10.2802 3.66519 11.1619 3.49461 12.0514 3.50013C15.763 3.52772 18.7317 6.61275 18.7317 10.3347V10.9999C18.7317 14.3577 19.4342 16.3061 20.0529 17.371C20.1196 17.4848 20.1551 17.6142 20.1558 17.746C20.1565 17.8779 20.1224 18.0076 20.0569 18.1221C19.9915 18.2366 19.8971 18.3318 19.7831 18.3982C19.6691 18.4645 19.5397 18.4996 19.4078 18.4999H4.59222C4.46034 18.4996 4.33087 18.4645 4.21689 18.3981C4.1029 18.3318 4.00844 18.2366 3.94301 18.122C3.87759 18.0075 3.84352 17.8778 3.84425 17.7459C3.84498 17.614 3.88048 17.4846 3.94716 17.3709C4.56622 16.3059 5.26904 14.3575 5.26904 10.9999L5.26904 10.2499Z" stroke="#222222" stroke-width="2" stroke-linecap="round" stroke-linejoin="round"/>
<path d="M9.00001 18.4999V19.2499C9.00001 20.0456 9.31608 20.8087 9.87869 21.3713C10.4413 21.9339 11.2044 22.2499 12 22.2499C12.7957 22.2499 13.5587 21.9339 14.1213 21.3713C14.6839 20.8087 15 20.0456 15 19.2499V18.4999M5.26904 10.2499C5.2678 9.36045 5.44262 8.47951 5.78343 7.6579C6.12424 6.83628 6.6243 6.09025 7.25477 5.4628C7.88525 4.83535 8.63368 4.33889 9.45693 4.00204C10.2802 3.66519 11.1619 3.49461 12.0514 3.50013C15.763 3.52772 18.7317 6.61275 18.7317 10.3347V10.9999C18.7317 14.3577 19.4342 16.3061 20.0529 17.371C20.1196 17.4848 20.1551 17.6142 20.1558 17.746C20.1565 17.8779 20.1224 18.0076 20.0569 18.1221C19.9915 18.2366 19.8971 18.3318 19.7831 18.3982C19.6691 18.4645 19.5397 18.4996 19.4078 18.4999H4.59222C4.46034 18.4996 4.33087 18.4645 4.21689 18.3981C4.1029 18.3318 4.00844 18.2366 3.94301 18.122C3.87759 18.0075 3.84352 17.8778 3.84425 17.7459C3.84498 17.614 3.88048 17.4846 3.94716 17.3709C4.56622 16.3059 5.26904 14.3575 5.26904 10.9999L5.26904 10.2499Z" stroke="black" stroke-opacity="0.2" stroke-width="2" stroke-linecap="round" stroke-linejoin="round"/>
</g>
<defs>
<clipPath id="clip0_1_738">
<rect width="24" height="24" fill="white" transform="translate(0 0.5)"/>
</clipPath>
</defs>
</svg>
