<svg width="12" height="11" viewBox="0 0 12 11" fill="none" xmlns="http://www.w3.org/2000/svg">
<path d="M10.2176 5.8959C10.9796 5.8959 11.5974 5.17558 11.5974 4.28663C11.5974 3.39769 10.9796 2.67688 10.2176 2.67688C9.45586 2.67688 8.83803 3.39769 8.83803 4.28663C8.83805 5.17558 9.45586 5.8959 10.2176 5.8959Z" fill="#5A409B"/>
<path d="M11.9843 7.44706C11.9228 7.01606 11.6174 6.41286 11.3863 6.14339C11.3559 6.10768 11.2198 6.09942 11.183 6.126C10.902 6.32763 10.5719 6.4463 10.2176 6.4463C9.86376 6.4463 9.53364 6.32763 9.2526 6.126C9.21568 6.09942 9.07979 6.10768 9.04935 6.14339C8.98473 6.21877 8.91423 6.31913 8.84549 6.4355C9.03147 6.84402 9.17896 7.27796 9.23218 7.65164C9.28539 8.02625 9.26811 8.3809 9.18208 8.70421C9.48765 8.83319 9.8541 8.88979 10.2176 8.88979C11.1658 8.88979 12.1361 8.50624 11.9843 7.44706Z" fill="#5A409B"/>
<path d="M5.96459 5.21686C7.19945 5.21686 8.2006 4.04884 8.2006 2.60821C8.2006 1.16802 7.19945 0 5.96459 0C4.72995 0 3.72917 1.16802 3.72917 2.60821C3.72917 4.04884 4.72993 5.21686 5.96459 5.21686Z" fill="#5A409B"/>
<path d="M7.85792 5.61636C7.80941 5.56 7.58907 5.54559 7.52917 5.58885C7.07335 5.91604 6.53844 6.10759 5.9646 6.10759C5.39117 6.10759 4.856 5.91604 4.40042 5.58885C4.34054 5.54556 4.12021 5.56 4.07169 5.61636C3.6962 6.05396 3.20132 7.03227 3.10175 7.7297C2.85627 9.4476 4.42911 10.0678 5.9646 10.0678C7.5005 10.0678 9.07332 9.4476 8.82784 7.7297C8.72828 7.03227 8.23339 6.05396 7.85792 5.61636Z" fill="#5A409B"/>
<path d="M1.78245 5.8959C2.54422 5.8959 3.16203 5.17558 3.16203 4.28663C3.16203 3.39769 2.54422 2.67688 1.78245 2.67688C1.02048 2.67688 0.402664 3.39769 0.402664 4.28663C0.402664 5.17558 1.02048 5.8959 1.78245 5.8959Z" fill="#5A409B"/>
<path d="M2.69753 7.65164C2.7541 7.25918 2.91374 6.79707 3.11387 6.36977C3.05809 6.28087 3.00233 6.20343 2.95086 6.14339C2.92042 6.10768 2.78453 6.09942 2.74761 6.126C2.46657 6.32763 2.13646 6.4463 1.78241 6.4463C1.42832 6.4463 1.09799 6.32763 0.817183 6.126C0.780433 6.09942 0.644167 6.10768 0.613722 6.14339C0.381996 6.41283 0.0774252 7.01606 0.0157377 7.44706C-0.135856 8.50624 0.834269 8.88977 1.78241 8.88977C2.12078 8.88977 2.46247 8.84118 2.7541 8.73008C2.66221 8.40018 2.64275 8.03724 2.69753 7.65164Z" fill="#5A409B"/>
</svg>
