<svg width="12" height="14" viewBox="0 0 12 14" fill="none" xmlns="http://www.w3.org/2000/svg">
<path d="M6.75 0.700001L7.28032 0.205024C7.1397 0.0737533 6.9489 1.2267e-06 6.75 1.2267e-06V0.700001ZM11.25 4.9H12C12 4.71435 11.9209 4.5363 11.7803 4.40502L11.25 4.9ZM4.5 7.7C4.5 7.31339 4.16421 7 3.75 7C3.33579 7 3 7.31339 3 7.7H4.5ZM3 9.8C3 10.1866 3.33579 10.5 3.75 10.5C4.16421 10.5 4.5 10.1866 4.5 9.8H3ZM3.375 4.9C2.96079 4.9 2.625 5.2134 2.625 5.6C2.625 5.98661 2.96079 6.3 3.375 6.3V4.9ZM4.125 6.3C4.53923 6.3 4.875 5.98661 4.875 5.6C4.875 5.2134 4.53923 4.9 4.125 4.9V6.3ZM3.375 2.8C2.96079 2.8 2.625 3.1134 2.625 3.5C2.625 3.8866 2.96079 4.2 3.375 4.2V2.8ZM4.125 4.2C4.53923 4.2 4.875 3.8866 4.875 3.5C4.875 3.1134 4.53923 2.8 4.125 2.8V4.2ZM6 0.700001V3.78H7.5V0.700001H6ZM7.95 5.6H11.25V4.2H7.95V5.6ZM6 3.78C6 3.96447 5.9994 4.14492 6.01267 4.29676C6.0267 4.45677 6.05978 4.64559 6.1635 4.83559L7.5 4.2C7.52197 4.24026 7.51417 4.2562 7.50772 4.18276C7.5006 4.10115 7.5 3.98757 7.5 3.78H6ZM7.95 4.2C7.72762 4.2 7.6059 4.19945 7.51845 4.19279C7.43977 4.18679 7.45687 4.17949 7.5 4.2L6.819 5.44741C7.02255 5.54422 7.2249 5.57507 7.39635 5.58814C7.55902 5.60056 7.75237 5.6 7.95 5.6V4.2ZM6.1635 4.83559C6.30728 5.09901 6.53677 5.31319 6.819 5.44741L7.5 4.2L6.1635 4.83559ZM3 7.7V9.8H4.5V7.7H3ZM3.375 6.3H4.125V4.9H3.375V6.3ZM3.375 4.2H4.125V2.8H3.375V4.2ZM6.75 1.2267e-06H3.15V1.4H6.75V1.2267e-06ZM1.31433e-06 2.94V11.06H1.5V2.94H1.31433e-06ZM3.15 14H8.85V12.6H3.15V14ZM12 11.06V4.9H10.5V11.06H12ZM11.7803 4.40502L7.28032 0.205024L6.21968 1.19498L10.7197 5.39498L11.7803 4.40502ZM8.85 14C9.2577 14 9.60855 14.0006 9.89625 13.9786C10.1928 13.956 10.4877 13.9061 10.7715 13.7711L10.0905 12.5237C10.0534 12.5413 9.97785 12.5677 9.77415 12.5833C9.5616 12.5994 9.28245 12.6 8.85 12.6V14ZM10.5 11.06C10.5 11.4636 10.4994 11.7242 10.4821 11.9225C10.4654 12.1127 10.4371 12.1831 10.4182 12.2178L11.7547 12.8534C11.8993 12.5885 11.9528 12.3133 11.977 12.0365C12.0006 11.768 12 11.4405 12 11.06H10.5ZM10.7715 13.7711C11.1949 13.5698 11.539 13.2485 11.7547 12.8534L10.4182 12.2178C10.3463 12.3495 10.2316 12.4566 10.0905 12.5237L10.7715 13.7711ZM1.31433e-06 11.06C1.31433e-06 11.4405 -0.000583664 11.768 0.0229288 12.0365C0.0471538 12.3133 0.100644 12.5885 0.245236 12.8534L1.58174 12.2178C1.56285 12.1831 1.53459 12.1127 1.51795 11.9225C1.50059 11.7242 1.5 11.4636 1.5 11.06H1.31433e-06ZM3.15 12.6C2.71759 12.6 2.43838 12.5994 2.22588 12.5833C2.02213 12.5677 1.94659 12.5413 1.90951 12.5237L1.22852 13.7711C1.51231 13.9061 1.80722 13.956 2.10373 13.9786C2.39148 14.0006 2.74234 14 3.15 14V12.6ZM0.245236 12.8534C0.460951 13.2485 0.805156 13.5698 1.22852 13.7711L1.90951 12.5237C1.76839 12.4566 1.65365 12.3495 1.58174 12.2178L0.245236 12.8534ZM3.15 1.2267e-06C2.74234 1.2267e-06 2.39148 -0.000544753 2.10373 0.0214002C1.80722 0.0440102 1.51231 0.0939343 1.22852 0.228887L1.90951 1.47629C1.94659 1.45866 2.02213 1.43228 2.22588 1.41675C2.43838 1.40055 2.71759 1.4 3.15 1.4V1.2267e-06ZM1.5 2.94C1.5 2.53642 1.50059 2.27582 1.51795 2.07749C1.53459 1.88732 1.56285 1.81682 1.58174 1.78221L0.245236 1.14662C0.100644 1.41149 0.0471538 1.68674 0.0229288 1.96348C-0.000583664 2.23205 1.31433e-06 2.55952 1.31433e-06 2.94H1.5ZM1.22852 0.228887C0.805156 0.430221 0.460951 0.751479 0.245236 1.14662L1.58174 1.78221C1.65365 1.6505 1.76839 1.54341 1.90951 1.47629L1.22852 0.228887Z" fill="#5A409B"/>
</svg>
