<svg width="12" height="14" viewBox="0 0 12 14" fill="none" xmlns="http://www.w3.org/2000/svg">
<path d="M11.929 2.8735C12.0017 3.15935 12.0188 3.45806 11.9792 3.75123C11.9396 4.0444 11.8442 4.32582 11.6988 4.57816C11.5534 4.8305 11.3611 5.04842 11.1337 5.2185C10.9063 5.38858 10.6487 5.50722 10.3767 5.5671C10.1038 5.61985 9.8236 5.61114 9.55403 5.54155C9.28446 5.47195 9.03151 5.34301 8.81142 5.16299C8.59134 4.98297 8.40898 4.75586 8.27606 4.49623C8.14313 4.2366 8.06258 3.95019 8.03957 3.6554L8.01201 3.3054C8.03449 3.59741 8.00001 3.89123 7.91073 4.16832C7.82144 4.44541 7.6793 4.69977 7.49326 4.91536C7.30722 5.13094 7.08132 5.30308 6.8298 5.42091C6.57828 5.53875 6.30659 5.59973 6.03188 5.6H5.97806C5.70305 5.59994 5.43104 5.53905 5.17922 5.42118C4.9274 5.3033 4.70124 5.131 4.51503 4.91516C4.32881 4.69932 4.1866 4.44464 4.09737 4.1672C4.00814 3.88976 3.97383 3.5956 3.99661 3.3033L3.97626 3.5658C3.94377 4.08454 3.73889 4.57391 3.39845 4.946C3.058 5.31808 2.6043 5.54848 2.11886 5.5958C1.80634 5.61767 1.49339 5.5605 1.20551 5.42896C0.917622 5.29741 0.662938 5.0952 0.462196 4.8388C0.261455 4.5824 0.120333 4.27906 0.0503223 3.95347C-0.0196883 3.62789 -0.0166074 3.28927 0.0593139 2.9652L0.630317 0.5299C0.665871 0.378527 0.747831 0.244166 0.863176 0.148159C0.978522 0.0521515 1.12064 4.1023e-06 1.26695 0H10.743C10.8893 4.1023e-06 11.0314 0.0521515 11.1468 0.148159C11.2621 0.244166 11.3441 0.378527 11.3796 0.5299L11.929 2.8735ZM10.0223 7C10.4451 6.99908 10.8638 6.91138 11.2556 6.7417V13.3C11.2556 13.4857 11.1864 13.6637 11.0633 13.795C10.9403 13.9263 10.7733 14 10.5992 14H1.41069C1.23662 14 1.06968 13.9263 0.946596 13.795C0.823511 13.6637 0.754363 13.4857 0.754363 13.3V6.7417C1.28278 6.97339 1.85941 7.05121 2.42528 6.96721C2.99115 6.8832 3.52594 6.64039 3.97495 6.2636C4.56582 6.74452 5.28927 7.00344 6.03253 7C6.75776 6.99593 7.46152 6.73712 8.03498 6.2636C8.60316 6.7361 9.30187 6.99501 10.0223 7ZM7.31762 10.5C7.31762 10.1287 7.17932 9.7726 6.93315 9.51005C6.68698 9.2475 6.3531 9.1 6.00497 9.1C5.65683 9.1 5.32295 9.2475 5.07678 9.51005C4.83061 9.7726 4.69231 10.1287 4.69231 10.5V12.6H7.31762V10.5Z" fill="#5A409B"/>
</svg>
