<svg width="12" height="14" viewBox="0 0 12 14" fill="none" xmlns="http://www.w3.org/2000/svg">
<path d="M10.7925 9.24C9.5325 8.4875 7.8975 7.875 6 7.875C4.1025 7.875 2.4675 8.4875 1.2075 9.24C0.4575 9.68625 0 10.5875 0 11.5675V12.25C0 13.2125 0.675 14 1.5 14H10.5C11.325 14 12 13.2125 12 12.25V11.5675C12 10.5875 11.5425 9.68625 10.7925 9.24Z" fill="#5A409B"/>
<path d="M4.33501 7H7.66501C8.5725 7 9.27001 6.0725 9.15001 5.0225L8.91001 2.87875C8.67751 1.21625 7.44001 0 6.00001 0C4.56001 0 3.32251 1.21625 3.09001 2.87875L2.85001 5.0225C2.73001 6.0725 3.42751 7 4.33501 7Z" fill="#5A409B"/>
</svg>
