<svg width="24" height="25" viewBox="0 0 24 25" fill="none" xmlns="http://www.w3.org/2000/svg">
<path d="M7.5 18.5C8.32843 18.5 9 19.1716 9 20C9 20.8284 8.32843 21.5 7.5 21.5C6.67157 21.5 6 20.8284 6 20C6 19.1716 6.67157 18.5 7.5 18.5Z" stroke="#222222" stroke-width="2"/>
<path d="M7.5 18.5C8.32843 18.5 9 19.1716 9 20C9 20.8284 8.32843 21.5 7.5 21.5C6.67157 21.5 6 20.8284 6 20C6 19.1716 6.67157 18.5 7.5 18.5Z" stroke="black" stroke-opacity="0.2" stroke-width="2"/>
<path d="M16.5 18.5C17.3284 18.5 18 19.1715 18 20C18 20.8284 17.3284 21.5 16.5 21.5C15.6716 21.5 15 20.8284 15 20C15 19.1715 15.6716 18.5 16.5 18.5Z" stroke="#222222" stroke-width="2"/>
<path d="M16.5 18.5C17.3284 18.5 18 19.1715 18 20C18 20.8284 17.3284 21.5 16.5 21.5C15.6716 21.5 15 20.8284 15 20C15 19.1715 15.6716 18.5 16.5 18.5Z" stroke="black" stroke-opacity="0.2" stroke-width="2"/>
<path d="M2 3.5L2.26121 3.59184C3.5628 4.04945 4.2136 4.27826 4.58584 4.82298C4.95808 5.36771 4.95808 6.09126 4.95808 7.53836V10.26C4.95808 13.2016 5.02132 14.1723 5.88772 15.0862C6.75412 16 8.14857 16 10.9375 16H12M16.2404 16C17.8014 16 18.5819 16 19.1336 15.5504C19.6853 15.1008 19.8429 14.3364 20.158 12.8075L20.6578 10.3827C21.0049 8.64369 21.1784 7.77417 20.7345 7.19708C20.2906 6.62 18.7738 6.62 17.0888 6.62H11.0235M4.95808 6.62H7" stroke="#222222" stroke-width="2" stroke-linecap="round"/>
<path d="M2 3.5L2.26121 3.59184C3.5628 4.04945 4.2136 4.27826 4.58584 4.82298C4.95808 5.36771 4.95808 6.09126 4.95808 7.53836V10.26C4.95808 13.2016 5.02132 14.1723 5.88772 15.0862C6.75412 16 8.14857 16 10.9375 16H12M16.2404 16C17.8014 16 18.5819 16 19.1336 15.5504C19.6853 15.1008 19.8429 14.3364 20.158 12.8075L20.6578 10.3827C21.0049 8.64369 21.1784 7.77417 20.7345 7.19708C20.2906 6.62 18.7738 6.62 17.0888 6.62H11.0235M4.95808 6.62H7" stroke="black" stroke-opacity="0.2" stroke-width="2" stroke-linecap="round"/>
</svg>
