<svg width="24" height="24" viewBox="0 0 24 24" fill="none" xmlns="http://www.w3.org/2000/svg">
<path d="M8.99918 20V4M8.99918 20H16.8022C17.9202 20 18.4792 20 18.9062 19.782C19.283 19.5902 19.5893 19.2838 19.7812 18.907C19.9992 18.48 19.9992 17.921 19.9992 16.803V7.197C19.9992 6.079 19.9992 5.519 19.7812 5.092C19.5891 4.71558 19.2828 4.40963 18.9062 4.218C18.4792 4 17.9192 4 16.7992 4H8.99918M8.99918 20H7.19618C6.07818 20 5.51818 20 5.09118 19.782C4.71476 19.5899 4.40881 19.2836 4.21718 18.907C3.99918 18.48 3.99918 17.92 3.99918 16.8V7.2C3.99918 6.08 3.99918 5.52 4.21718 5.092C4.40918 4.715 4.71418 4.41 5.09118 4.218C5.51918 4 6.07918 4 7.19918 4H8.99918" stroke="#222222" stroke-linecap="round" stroke-linejoin="round"/>
<path d="M8.99918 20V4M8.99918 20H16.8022C17.9202 20 18.4792 20 18.9062 19.782C19.283 19.5902 19.5893 19.2838 19.7812 18.907C19.9992 18.48 19.9992 17.921 19.9992 16.803V7.197C19.9992 6.079 19.9992 5.519 19.7812 5.092C19.5891 4.71558 19.2828 4.40963 18.9062 4.218C18.4792 4 17.9192 4 16.7992 4H8.99918M8.99918 20H7.19618C6.07818 20 5.51818 20 5.09118 19.782C4.71476 19.5899 4.40881 19.2836 4.21718 18.907C3.99918 18.48 3.99918 17.92 3.99918 16.8V7.2C3.99918 6.08 3.99918 5.52 4.21718 5.092C4.40918 4.715 4.71418 4.41 5.09118 4.218C5.51918 4 6.07918 4 7.19918 4H8.99918" stroke="black" stroke-opacity="0.2" stroke-linecap="round" stroke-linejoin="round"/>
<path d="M15.4985 14.9741L12.5954 12.071L15.4985 9.16797" stroke="#222222" stroke-width="0.967692" stroke-linecap="round" stroke-linejoin="round"/>
<path d="M15.4985 14.9741L12.5954 12.071L15.4985 9.16797" stroke="black" stroke-opacity="0.2" stroke-width="0.967692" stroke-linecap="round" stroke-linejoin="round"/>
</svg>
