<svg width="20" height="20" viewBox="0 0 20 20" fill="none" xmlns="http://www.w3.org/2000/svg">
<g clip-path="url(#clip0_1_1106)">
<path fill-rule="evenodd" clip-rule="evenodd" d="M18.8235 13.2299C18.1082 13.7346 16.8576 14.444 15.2412 14.8816C15.0447 13.8134 14.2753 12.9299 13.1988 12.5993C12.2435 12.3052 11.2706 12.0957 10.2871 11.9569C11.0365 11.324 11.5541 10.4381 11.7035 9.42399C11.9318 9.41575 12.1706 9.41104 12.4435 9.41104C14.1729 9.42046 15.8929 9.68516 17.5576 10.1969C18.3141 10.4299 18.8235 11.111 18.8235 11.8934V13.2299ZM14.1176 16.7593C12.9282 17.6005 10.6776 18.8228 7.64706 18.8228C6.29883 18.8228 3.69765 18.5499 1.17647 16.7593V15.4181C1.17647 14.6369 1.68706 13.9546 2.4447 13.7216C4.13647 13.204 5.88589 12.9416 7.64706 12.9416H7.73529C9.47058 12.9499 11.1918 13.2134 12.8541 13.724C13.6094 13.9557 14.1177 14.6369 14.1177 15.4181V16.7593H14.1176ZM4.70588 8.82281V7.64633C4.70588 6.02516 6.02471 4.70516 7.64706 4.70516C9.26942 4.70516 10.5882 6.02516 10.5882 7.64633V8.82281C10.5882 10.4452 9.26942 11.764 7.64706 11.764C6.02471 11.764 4.70589 10.4452 4.70589 8.82281H4.70588ZM12.3529 1.17575C13.1365 1.17575 13.8753 1.48281 14.4318 2.03928C14.9871 2.59575 15.2941 3.33339 15.2941 4.11692V5.29339C15.2941 6.91575 13.9753 8.23457 12.3529 8.23457C12.1482 8.23457 11.9529 8.20751 11.7647 8.16751V7.64633C11.7647 6.01692 10.8059 4.6181 9.42942 3.95104C9.51647 2.40868 10.7882 1.17575 12.3529 1.17575ZM17.9035 9.07222C16.9518 8.78045 15.9812 8.56986 14.9894 8.42986C15.8871 7.67457 16.4706 6.55692 16.4706 5.2934V4.11691C16.4706 3.01927 16.0424 1.98514 15.2635 1.2075C14.4847 0.428674 13.4518 -0.000732422 12.3529 -0.000732422C10.2624 -0.000732422 8.54942 1.5722 8.28824 3.59456C8.07765 3.56044 7.86706 3.52867 7.64706 3.52867C5.37647 3.52867 3.52942 5.3769 3.52942 7.64632V8.8228C3.52942 10.0863 4.11294 11.204 5.01176 11.9604C4.02942 12.0981 3.05176 12.3052 2.1 12.5969C0.844708 12.9828 0 14.1169 0 15.4181V17.3522L0.235292 17.5287C3.10235 19.6781 6.10824 19.9993 7.64706 19.9993C11.2329 19.9993 13.8306 18.4511 15.0588 17.5287L15.2941 17.3522V16.0969C17.4318 15.5699 18.9988 14.5758 19.7647 13.9993L20 13.8228V11.8934C20 10.591 19.1565 9.45692 17.9035 9.07222Z" fill="#5A409B"/>
</g>
<defs>
<clipPath id="clip0_1_1106">
<rect width="20" height="20" fill="white"/>
</clipPath>
</defs>
</svg>
