<svg width="20" height="19" viewBox="0 0 20 19" fill="none" xmlns="http://www.w3.org/2000/svg">
<path d="M8.00653 5.74268C8.00653 5.21249 7.5767 4.78268 7.04653 4.78268C6.51638 4.78268 6.08657 5.21249 6.08657 5.74268H8.00653ZM13.9124 5.74268C13.9124 5.21249 13.4826 4.78268 12.9524 4.78268C12.4223 4.78268 11.9924 5.21249 11.9924 5.74268H13.9124ZM6.08671 5.72619C6.07761 6.2563 6.49996 6.69342 7.03002 6.70254C7.56019 6.71165 7.99731 6.28929 8.0064 5.75916L6.08671 5.72619ZM8.0192 5.0142C8.02829 4.48409 7.60602 4.04697 7.07584 4.03786C6.54574 4.02874 6.10862 4.45111 6.09951 4.98123L8.0192 5.0142ZM7.97773 5.97621C8.10675 5.46195 7.79443 4.94049 7.28013 4.81151C6.76584 4.68254 6.24439 4.99488 6.11541 5.50914L7.97773 5.97621ZM6.84557 6.54396L7.77446 6.78649L7.77677 6.77749L6.84557 6.54396ZM2.86656 7.43059C2.43087 7.12847 1.83275 7.23674 1.53064 7.6724C1.22852 8.10812 1.33679 8.70626 1.77249 9.00834L2.86656 7.43059ZM3.27947 8.22933C3.28491 7.69916 2.85953 7.26496 2.32937 7.25953C1.79919 7.25409 1.36502 7.67944 1.35958 8.20962L3.27947 8.22933ZM2.24913 15.0892L3.20906 15.1008L3.20908 15.0991L2.24913 15.0892ZM7.43949 18.64C7.96966 18.64 8.39949 18.2101 8.39949 17.68C8.39949 17.1498 7.96966 16.72 7.43949 16.72V18.64ZM1.7701 9.00668C2.20488 9.31016 2.80331 9.20367 3.10675 8.76885C3.4102 8.33417 3.30373 7.73564 2.86895 7.43225L1.7701 9.00668ZM1.14065 4.99772L0.240729 4.66344C0.230054 4.69217 0.220761 4.72139 0.212889 4.75101L1.14065 4.99772ZM2.20945 2.12028L3.10938 2.45455C3.11863 2.42964 3.12684 2.40436 3.13399 2.37876L2.20945 2.12028ZM3.62897 1.03996V0.0799561H3.62619L3.62897 1.03996ZM16.3688 1.03996L16.3716 0.0799561H16.3688V1.03996ZM17.7883 2.12028L16.8637 2.37877C16.8709 2.40431 16.8791 2.42955 16.8883 2.45442L17.7883 2.12028ZM18.8571 4.999L19.785 4.75239C19.777 4.72279 19.7678 4.69358 19.7571 4.66485L18.8571 4.999ZM17.1297 7.43256C16.695 7.73628 16.5889 8.33468 16.8925 8.76936C17.1963 9.20392 17.7948 9.31004 18.2294 9.00642L17.1297 7.43256ZM6.47953 17.68C6.47953 18.2101 6.90931 18.64 7.43949 18.64C7.96966 18.64 8.39949 18.2101 8.39949 17.68H6.47953ZM11.5995 17.68C11.5995 18.2101 12.0293 18.64 12.5595 18.64C13.0897 18.64 13.5195 18.2101 13.5195 17.68H11.5995ZM7.43949 16.72C6.90931 16.72 6.47953 17.1498 6.47953 17.68C6.47953 18.2101 6.90931 18.64 7.43949 18.64V16.72ZM12.5595 18.64C13.0897 18.64 13.5195 18.2101 13.5195 17.68C13.5195 17.1498 13.0897 16.72 12.5595 16.72V18.64ZM11.9926 5.75422C11.999 6.28437 12.4339 6.70899 12.9641 6.70261C13.4941 6.69623 13.9188 6.26128 13.9124 5.73113L11.9926 5.75422ZM13.9035 4.98617C13.8971 4.45602 13.4621 4.03141 12.932 4.03778C12.4018 4.04417 11.9772 4.47911 11.9836 5.00926L13.9035 4.98617ZM13.8872 5.50809C13.7577 4.99397 13.2358 4.68222 12.7218 4.81178C12.2076 4.94135 11.8958 5.46315 12.0255 5.97726L13.8872 5.50809ZM13.1572 6.54012L12.2263 6.77471L12.2284 6.78232L13.1572 6.54012ZM18.2253 9.00924C18.6614 8.70792 18.7707 8.11004 18.4694 7.67381C18.1679 7.23758 17.57 7.12828 17.1338 7.42965L18.2253 9.00924ZM18.6395 8.21013C18.6344 7.67996 18.2004 7.25438 17.6703 7.25953C17.1401 7.26466 16.7145 7.69864 16.7196 8.22882L18.6395 8.21013ZM17.746 15.0892L16.7862 15.0986V15.1008L17.746 15.0892ZM12.5595 16.72C12.0293 16.72 11.5995 17.1498 11.5995 17.68C11.5995 18.2101 12.0293 18.64 12.5595 18.64V16.72ZM6.08657 5.74268C6.08657 7.9037 7.83846 9.65564 9.99949 9.65564V7.73564C8.89882 7.73564 8.00653 6.84336 8.00653 5.74268H6.08657ZM9.99949 9.65564C12.1606 9.65564 13.9124 7.9037 13.9124 5.74268H11.9924C11.9924 6.84336 11.1002 7.73564 9.99949 7.73564V9.65564ZM8.0064 5.75916L8.0192 5.0142L6.09951 4.98123L6.08671 5.72619L8.0064 5.75916ZM6.11541 5.50914L5.91444 6.31042L7.77677 6.77749L7.97773 5.97621L6.11541 5.50914ZM5.91675 6.30143C5.75305 6.92837 5.29353 7.43586 4.68589 7.66076L5.35245 9.46133C6.54815 9.01871 7.45242 8.02019 7.77446 6.78649L5.91675 6.30143ZM4.68589 7.66076C4.07823 7.88578 3.39903 7.79976 2.86656 7.43059L1.77249 9.00834C2.82024 9.73487 4.15675 9.90408 5.35245 9.46133L4.68589 7.66076ZM1.35958 8.20962L1.28918 15.0794L3.20908 15.0991L3.27947 8.22933L1.35958 8.20962ZM1.2892 15.0777C1.2779 16.0185 1.64378 16.9248 2.30513 17.5941L3.67085 16.2446C3.37023 15.9403 3.20393 15.5284 3.20906 15.1008L1.2892 15.0777ZM2.30513 17.5941C2.96649 18.2634 3.86827 18.6401 4.8092 18.64L4.80913 16.72C4.38143 16.72 3.97146 16.5488 3.67085 16.2446L2.30513 17.5941ZM4.8092 18.64H7.43949V16.72H4.80913L4.8092 18.64ZM2.86895 7.43225C2.16888 6.94365 1.84901 6.06947 2.0684 5.24442L0.212889 4.75101C-0.213876 6.35586 0.408333 8.05628 1.7701 9.00668L2.86895 7.43225ZM2.04058 5.33199L3.10938 2.45455L1.30953 1.786L0.240729 4.66344L2.04058 5.33199ZM3.13399 2.37876C3.19645 2.15535 3.39976 2.00062 3.63174 1.99996L3.62619 0.0799561C2.53498 0.0831177 1.57873 0.810874 1.2849 1.86179L3.13399 2.37876ZM3.62897 1.99996H16.3688V0.0799561H3.62897V1.99996ZM16.3661 1.99996C16.598 2.00062 16.8013 2.15535 16.8637 2.37877L18.7128 1.86178C18.4191 0.810874 17.4628 0.0831177 16.3716 0.0799561L16.3661 1.99996ZM16.8883 2.45442L17.9571 5.33314L19.7571 4.66485L18.6883 1.78613L16.8883 2.45442ZM17.9293 5.2456C18.1485 6.07019 17.829 6.94385 17.1297 7.43256L18.2294 9.00642C19.5899 8.05576 20.2112 6.35636 19.785 4.75239L17.9293 5.2456ZM8.39949 17.68V13.84H6.47953V17.68H8.39949ZM8.39949 13.84C8.39949 13.6632 8.54285 13.52 8.71949 13.52V11.6C7.48237 11.6 6.47953 12.6028 6.47953 13.84H8.39949ZM8.71949 13.52H11.2795V11.6H8.71949V13.52ZM11.2795 13.52C11.4563 13.52 11.5995 13.6632 11.5995 13.84H13.5195C13.5195 12.6028 12.5166 11.6 11.2795 11.6V13.52ZM11.5995 13.84V17.68H13.5195V13.84H11.5995ZM7.43949 18.64H12.5595V16.72H7.43949V18.64ZM13.9124 5.73113L13.9035 4.98617L11.9836 5.00926L11.9926 5.75422L13.9124 5.73113ZM12.0255 5.97726L12.2263 6.77471L14.0882 6.30553L13.8872 5.50809L12.0255 5.97726ZM12.2284 6.78232C12.5498 8.01519 13.4525 9.01359 14.6469 9.45711L15.3153 7.6573C14.7084 7.43185 14.2496 6.92445 14.0863 6.29792L12.2284 6.78232ZM14.6469 9.45711C15.8413 9.90076 17.177 9.73359 18.2253 9.00924L17.1338 7.42965C16.6011 7.79772 15.9223 7.88271 15.3153 7.6573L14.6469 9.45711ZM16.7196 8.22882L16.7862 15.0986L18.706 15.0799L18.6395 8.21013L16.7196 8.22882ZM16.7862 15.1008C16.7913 15.5284 16.625 15.9403 16.3244 16.2446L17.6901 17.5941C18.3515 16.9248 18.7173 16.0185 18.706 15.0777L16.7862 15.1008ZM16.3244 16.2446C16.0238 16.5488 15.6138 16.72 15.1862 16.72L15.186 18.64C16.127 18.6401 17.0287 18.2634 17.6901 17.5941L16.3244 16.2446ZM15.1862 16.72H12.5595V18.64H15.186L15.1862 16.72Z" fill="#5A409B"/>
</svg>
