<svg width="20" height="20" viewBox="0 0 20 20" fill="none" xmlns="http://www.w3.org/2000/svg">
<path d="M11.6667 8.33333C11.6667 7.87309 11.2936 7.5 10.8333 7.5H10.4167C7.88536 7.5 5.83333 9.552 5.83333 12.0833C5.83333 14.6147 7.88536 16.6667 10.4167 16.6667H14.5833C17.1147 16.6667 19.1667 14.6147 19.1667 12.0833C19.1667 10.0076 17.7867 8.25407 15.8942 7.69019C15.4248 7.55035 15 7.94073 15 8.4305V8.47358C15 8.88825 15.3121 9.22792 15.6954 9.38617C16.7546 9.82333 17.5 10.8663 17.5 12.0833C17.5 13.6942 16.1942 15 14.5833 15H10.4167C8.80583 15 7.5 13.6942 7.5 12.0833C7.5 10.4725 8.80583 9.16667 10.4167 9.16667H10.8333C11.2936 9.16667 11.6667 8.79358 11.6667 8.33333Z" fill="#5A409B"/>
<path d="M9.58333 3.33337C12.1147 3.33337 14.1667 5.3854 14.1667 7.91671C14.1667 10.448 12.1147 12.5 9.58333 12.5H9.16667C8.70642 12.5 8.33333 12.127 8.33333 11.6667C8.33333 11.2065 8.70642 10.8334 9.16667 10.8334H9.58333C11.1942 10.8334 12.5 9.52754 12.5 7.91671C12.5 6.30587 11.1942 5.00004 9.58333 5.00004H5.41667C3.80583 5.00004 2.5 6.30587 2.5 7.91671C2.5 9.13379 3.24543 10.1767 4.30461 10.6139C4.6879 10.772 5 11.1118 5 11.5265V11.5695C5 12.0593 4.5752 12.4497 4.10583 12.3099C2.21327 11.746 0.833334 9.99246 0.833334 7.91671C0.833334 5.3854 2.88536 3.33337 5.41667 3.33337H9.58333Z" fill="#5A409B"/>
</svg>
