<svg width="20" height="20" viewBox="0 0 20 20" fill="none" xmlns="http://www.w3.org/2000/svg">
<g clip-path="url(#clip0_1_1071)">
<path d="M18.3333 10.1699V11.4375C18.3333 14.6881 18.3333 16.3135 17.357 17.3234C16.3807 18.3333 14.8093 18.3333 11.6667 18.3333H8.33333C5.19063 18.3333 3.61929 18.3333 2.64297 17.3234C1.66667 16.3135 1.66667 14.6881 1.66667 11.4375V10.1699C1.66667 8.26287 1.66667 7.30936 2.09933 6.51891C2.532 5.72847 3.32246 5.23788 4.90336 4.25673L6.57002 3.22235C8.24116 2.1852 9.07675 1.66663 10 1.66663C10.9232 1.66663 11.7588 2.1852 13.43 3.22235L15.0967 4.25673C16.6776 5.23788 17.468 5.72847 17.9007 6.51891" stroke="#5A409B" stroke-width="2" stroke-linecap="round"/>
<path d="M12.5 15H7.5" stroke="#5A409B" stroke-width="2" stroke-linecap="round"/>
</g>
<defs>
<clipPath id="clip0_1_1071">
<rect width="20" height="20" fill="white"/>
</clipPath>
</defs>
</svg>
