<svg width="20" height="20" viewBox="0 0 20 20" fill="none" xmlns="http://www.w3.org/2000/svg">
<path d="M16.6803 13.5477C16.2745 15.4415 16.0716 16.3884 15.384 16.9442C14.6964 17.5 13.7281 17.5 11.7912 17.5H8.20877C6.27199 17.5 5.3036 17.5 4.61604 16.9442C3.92848 16.3884 3.72558 15.4415 3.31977 13.5477L2.96262 11.881C2.3639 9.08696 2.06454 7.68998 2.815 6.76168C3.56546 5.83337 4.99418 5.83337 7.85163 5.83337H12.1484C15.0059 5.83337 16.4346 5.83337 17.1851 6.76168C17.7441 7.45317 17.7206 8.40471 17.4247 10" stroke="#5A409B" stroke-width="2" stroke-linecap="round"/>
<path d="M13.3333 10H10M7.5 10H6.66667" stroke="#5A409B" stroke-width="2" stroke-linecap="round" stroke-linejoin="round"/>
<path d="M8.33333 12.5H11.6667" stroke="#5A409B" stroke-width="2" stroke-linecap="round" stroke-linejoin="round"/>
<path d="M15 7.5L12.5 2.5" stroke="#5A409B" stroke-width="2" stroke-linecap="round" stroke-linejoin="round"/>
<path d="M5 7.5L7.5 2.5" stroke="#5A409B" stroke-width="2" stroke-linecap="round" stroke-linejoin="round"/>
</svg>
