<svg width="24" height="25" viewBox="0 0 24 25" fill="none" xmlns="http://www.w3.org/2000/svg">
<g clip-path="url(#clip0_2034_551)">
<path d="M12.0001 0.0672607C6.93209 0.0672607 2.80859 4.19053 2.80859 9.25875C2.80859 14.1946 11.2631 23.507 11.6231 23.9009C11.7199 24.0069 11.8565 24.0673 12.0001 24.0673C12.1437 24.0673 12.2803 24.0069 12.3771 23.9009C12.7371 23.507 21.1916 14.1946 21.1916 9.25875C21.1916 4.19053 17.0681 0.0672607 12.0001 0.0672607ZM12.0001 22.7889C10.3465 20.9092 3.82986 13.2461 3.82986 9.25879C3.82986 4.75378 7.49511 1.08857 12.0001 1.08857C16.5051 1.08857 20.1703 4.75378 20.1703 9.25879C20.1703 13.2449 13.6532 20.9094 12.0001 22.7889Z" fill="#5A409B"/>
<path d="M12.0001 4.15234C8.90287 4.15234 6.38306 6.67211 6.38306 9.76937C6.38306 12.8666 8.90282 15.3864 12.0001 15.3864C15.0974 15.3864 17.6171 12.8666 17.6171 9.76937C17.6171 6.67211 15.0974 4.15234 12.0001 4.15234ZM12.0001 14.3651C9.46584 14.3651 7.40432 12.3033 7.40432 9.76933C7.40432 7.23531 9.46584 5.17356 12.0001 5.17356C14.5343 5.17356 16.5959 7.23531 16.5959 9.76933C16.5959 12.3033 14.5343 14.3651 12.0001 14.3651Z" fill="#5A409B"/>
</g>
<defs>
<clipPath id="clip0_2034_551">
<rect width="24" height="24" fill="white" transform="translate(0 0.0672607)"/>
</clipPath>
</defs>
</svg>
