<svg width="136" height="46" viewBox="0 0 136 46" fill="none" xmlns="http://www.w3.org/2000/svg">
<path d="M3.32778 26.1602C4.23483 26.1602 4.85149 26.6814 5.17451 27.7239L6.97229 33.7061L8.81739 27.7077C9.12083 26.6863 9.74075 26.1748 10.6804 26.1748C11.6642 26.1748 12.2417 26.7707 12.4146 27.9642L13.8404 37.704V37.769C13.8404 37.7771 13.8453 37.7836 13.8535 37.7852C13.8551 37.7852 13.8567 37.7852 13.8567 37.7852L13.873 37.8177C13.8943 38.183 13.7588 38.5419 13.5011 38.8017C13.2384 39.0437 12.8877 39.172 12.5304 39.1557C11.7098 39.1557 11.2449 38.7254 11.1372 37.8648L10.2775 31.5448C10.0817 32.1554 9.76685 33.2011 9.32964 34.6804C8.89243 36.1597 8.55474 37.2591 8.31818 37.9801C8.05716 38.7774 7.59874 39.1752 6.9413 39.1736C6.2398 39.1736 5.77486 38.7757 5.54809 37.9801L3.78783 31.5107L2.70133 37.8469C2.6687 38.2074 2.52025 38.55 2.28043 38.8212C2.02267 39.0583 1.67682 39.1784 1.32607 39.1525C0.973696 39.1736 0.62621 39.0534 0.361926 38.8212C0.109062 38.5614 -0.019818 38.2074 0.00465275 37.8469C0.00302136 37.7284 0.0144418 37.6082 0.0372812 37.4913L1.57731 27.9448C1.77307 26.7561 2.35711 26.1602 3.32778 26.1602Z" fill="#E5E7EB"/>
<path d="M20.9872 26.2109C21.7768 26.2109 22.3119 26.6039 22.5909 27.3882C25.0951 34.2457 26.348 37.7385 26.348 37.8684C26.361 38.2176 26.2321 38.557 25.9923 38.8119C25.7378 39.0636 25.3871 39.1951 25.0282 39.1756C24.3789 39.1756 23.9466 38.8963 23.7312 38.3361L23.1488 36.8194H18.873C18.8093 36.9705 18.7294 37.1881 18.6299 37.4722C18.532 37.7564 18.4619 37.9594 18.4194 38.0763C18.1601 38.8087 17.6837 39.174 16.9936 39.174C16.6347 39.2016 16.2856 39.0603 16.0458 38.794C15.8288 38.5277 15.7162 38.1932 15.7293 37.8506C15.7374 37.6703 15.7701 37.4901 15.8272 37.318L19.3428 27.3866C19.6201 26.6039 20.1667 26.2109 20.9872 26.2109ZM19.7719 34.1125H22.1374C22.0183 33.7683 21.8502 33.2974 21.6349 32.6933C21.4196 32.0908 21.2042 31.4657 20.9872 30.7999L19.7719 34.1125Z" fill="#E5E7EB"/>
<path d="M31.9047 25.8221C32.9569 25.8204 33.9814 26.1598 34.8216 26.7899C35.3176 27.1552 35.5672 27.5904 35.5672 28.0954C35.5688 28.4559 35.4366 28.8034 35.1952 29.0714C34.9635 29.349 34.6177 29.5066 34.2539 29.4984C33.8656 29.4822 33.4937 29.3344 33.2016 29.0795C32.8313 28.7758 32.3696 28.6053 31.89 28.5956C31.5964 28.5761 31.3044 28.6492 31.0564 28.8051C30.8655 28.9447 30.7709 29.1915 30.7709 29.5488C30.7693 29.6965 30.8019 29.8427 30.8688 29.9742C30.9503 30.1204 31.0678 30.2421 31.2097 30.3298C31.3712 30.4386 31.5132 30.5231 31.6306 30.5864C31.7481 30.6513 31.9487 30.7455 32.231 30.8706C32.5132 30.9956 32.7106 31.0817 32.8297 31.1369C34.0076 31.6955 34.8803 32.2573 35.4464 32.8224C36.0125 33.3859 36.2964 34.141 36.2964 35.0877C36.2964 36.3997 35.8641 37.4455 35.0011 38.2249C34.1381 39.0044 33.0467 39.3941 31.7285 39.3941C30.6224 39.3892 29.5408 39.0644 28.6175 38.4604C28.1427 38.1957 27.8523 37.6939 27.8572 37.1532C27.8572 36.2926 28.2896 35.8622 29.1526 35.8639C29.5017 35.8639 29.8426 35.958 30.1412 36.1367C30.6143 36.4436 31.1641 36.6108 31.7285 36.6206C32.1674 36.6352 32.598 36.502 32.9504 36.2406C33.2816 35.9889 33.4676 35.5911 33.4464 35.177C33.4415 34.8798 33.3012 34.5989 33.0646 34.4187C32.6225 34.0955 32.1445 33.8259 31.6388 33.6132C31.1853 33.3973 30.8345 33.2284 30.5849 33.1033C30.2603 32.9312 29.9454 32.738 29.6452 32.5253C29.3141 32.3125 29.0139 32.0543 28.7545 31.7588C28.5277 31.4746 28.3418 31.1596 28.2047 30.8235C28.0416 30.4403 27.9584 30.0294 27.96 29.6137C27.9616 28.6232 28.3613 27.6732 29.071 26.9766C29.8067 26.2085 30.8378 25.7896 31.9047 25.8221Z" fill="#E5E7EB"/>
<path d="M38.9121 26.2109H43.4799C44.3886 26.2109 44.8422 26.6575 44.8405 27.5506C44.8389 28.4437 44.3854 28.8903 43.4799 28.8903H40.1927V31.4218H42.5093C43.3935 31.4218 43.8372 31.8732 43.8389 32.7761C43.8389 33.6578 43.3951 34.0995 42.5093 34.0995H40.1927V37.9529C40.1927 38.7681 39.7392 39.1773 38.8321 39.1789C37.9235 39.1805 37.4765 38.7713 37.4862 37.9529V27.713C37.4862 26.7111 37.961 26.2109 38.9121 26.2109Z" fill="#E5E7EB"/>
<path d="M54.7696 26.1875C55.7109 26.1875 56.1807 26.6649 56.1791 27.623V33.9917C56.1987 34.849 56.0584 35.7016 55.7647 36.507C55.5331 37.1549 55.1334 37.733 54.6064 38.1779C54.117 38.5741 53.5558 38.8745 52.9555 39.0645C52.3046 39.2659 51.6275 39.3633 50.9456 39.3552C50.267 39.3633 49.5932 39.2643 48.9455 39.0645C48.3566 38.8778 47.8133 38.5757 47.3419 38.1779C46.8345 37.7265 46.4544 37.15 46.2391 36.507C45.9617 35.6983 45.828 34.8474 45.8426 33.9917V27.6246C45.8426 26.6698 46.3076 26.1907 47.2358 26.1891C48.1641 26.1875 48.629 26.6665 48.629 27.6246V33.8812C48.629 35.6545 49.4545 36.5411 51.1071 36.5411C51.82 36.5411 52.3731 36.3413 52.7679 35.9435C53.1627 35.5457 53.3584 34.8572 53.3584 33.8796V27.6246C53.3601 26.6665 53.8299 26.1875 54.7696 26.1875Z" fill="#E5E7EB"/>
<path d="M59.2035 26.2109H63.7714C64.6785 26.2109 65.132 26.6575 65.132 27.5506C65.132 28.4437 64.6785 28.8903 63.7714 28.8903H60.4825V31.4218H62.7991C63.6849 31.4218 64.1287 31.8732 64.1287 32.7761C64.1287 33.6578 63.6849 34.0995 62.7991 34.0995H60.4825V37.9529C60.4825 38.7681 60.029 39.1773 59.122 39.1789C58.2149 39.1805 57.7663 38.7713 57.7793 37.9529V27.713C57.7793 26.7111 58.2541 26.2109 59.2035 26.2109Z" fill="#E5E7EB"/>
<path d="M70.3365 26.2109C71.1245 26.2109 71.6596 26.6039 71.9402 27.3882C74.4444 34.2457 75.6973 37.7385 75.6973 37.8684C75.7087 38.2176 75.5814 38.557 75.34 38.8119C75.0855 39.0636 74.7347 39.1951 74.3758 39.1756C73.7265 39.1756 73.2942 38.8963 73.0789 38.3361L72.4965 36.8194H68.2206C68.1554 36.9705 68.0738 37.1881 67.9759 37.4722C67.878 37.7564 67.8079 37.9594 67.7655 38.0763C67.5077 38.8087 67.033 39.174 66.3396 39.174C65.9824 39.2016 65.6316 39.0603 65.3918 38.794C65.1765 38.5277 65.0639 38.1932 65.0769 37.8506C65.0835 37.6703 65.1161 37.4901 65.1732 37.318L68.6888 27.3866C68.9678 26.6055 69.5159 26.2109 70.3365 26.2109ZM69.1228 34.1125H71.4899C71.3708 33.7683 71.2028 33.2974 70.9874 32.6933C70.7721 32.0908 70.5568 31.4657 70.3414 30.7999L69.1228 34.1125Z" fill="#E5E7EB"/>
<path d="M76.0863 26.1875H81.8223C82.7293 26.1875 83.1828 26.6389 83.1828 27.5418C83.1828 28.4122 82.7293 28.8473 81.8223 28.849H80.2822V37.7508C80.2822 38.6975 79.845 39.1701 78.969 39.1701C78.0619 39.1701 77.61 38.6975 77.61 37.7508V28.8473H76.0863C75.1581 28.8473 74.6931 28.4122 74.6931 27.5402C74.6931 26.6389 75.1564 26.1875 76.0863 26.1875Z" fill="#E5E7EB"/>
<path d="M0.794095 9.95233C1.00781 9.73798 1.33735 9.63081 1.77945 9.63081C2.22156 9.63081 2.54946 9.73636 2.76481 9.95233C2.98015 10.1667 3.08782 10.5061 3.08782 10.9672V14.2474C3.06335 14.7637 3.15634 15.2785 3.36026 15.7527C3.50546 16.1164 3.76811 16.4201 4.10907 16.6165C4.43371 16.7643 4.78772 16.839 5.145 16.8358H14.2318V11.0322C14.2318 10.204 14.6511 9.79157 15.4896 9.79157C15.824 9.76559 16.1552 9.876 16.4081 10.0968C16.6267 10.355 16.736 10.6895 16.7131 11.0257V17.7825C16.7131 18.2907 16.5957 18.6691 16.3575 18.9321C16.1193 19.1952 15.762 19.3219 15.2889 19.3219H5.25104C4.65232 19.3251 4.05686 19.239 3.48262 19.0685C2.9149 18.8948 2.38796 18.6074 1.93606 18.2225C1.45644 17.8052 1.08938 17.2774 0.867509 16.6831C0.590174 15.9362 0.45803 15.1453 0.475975 14.3497V10.9656C0.474344 10.5061 0.582015 10.1667 0.794095 9.95233ZM7.0113 5.96094C7.25927 5.97555 7.50072 6.03889 7.72422 6.14768C7.92814 6.27272 8.1027 6.43997 8.23321 6.6397C8.34251 6.85567 8.40287 7.09275 8.41103 7.33308C8.40287 7.5799 8.34251 7.82185 8.23321 8.0427C8.11248 8.25379 7.9363 8.42917 7.72422 8.54933C7.50398 8.663 7.25927 8.72633 7.0113 8.73608C6.76822 8.72633 6.53004 8.66138 6.3147 8.54933C6.11078 8.4243 5.94111 8.24892 5.82202 8.0427C5.70293 7.8251 5.64094 7.58153 5.6442 7.33308C5.64257 7.09113 5.70456 6.85243 5.82202 6.6397C5.93132 6.42861 6.10262 6.2581 6.3147 6.14768C6.53167 6.03564 6.76985 5.9723 7.0113 5.96094ZM10.7341 5.96094C10.9821 5.97555 11.2235 6.03889 11.447 6.14768C11.651 6.27272 11.8255 6.43997 11.956 6.6397C12.067 6.85405 12.1322 7.09113 12.1436 7.33308C12.1338 7.5799 12.0686 7.82185 11.956 8.0427C11.8402 8.25867 11.664 8.43404 11.447 8.54933C11.2252 8.663 10.9821 8.72633 10.7341 8.73608C10.491 8.72633 10.2529 8.66138 10.0375 8.54933C9.83196 8.4243 9.66393 8.25055 9.54647 8.0427C9.42249 7.82673 9.35886 7.58153 9.35886 7.33308C9.35886 7.0895 9.42412 6.8508 9.54647 6.6397C9.65414 6.42861 9.82707 6.25648 10.0375 6.14768C10.2545 6.03564 10.491 5.9723 10.7341 5.96094Z" fill="#E5E7EB"/>
<path d="M19.3157 5.47192C20.1477 5.47192 20.5653 5.88925 20.5719 6.7239V16.8323H22.1755V19.3151H19.5196C19.0449 19.3151 18.6876 19.1852 18.4511 18.9254C18.2129 18.6656 18.0938 18.2824 18.0938 17.7757V6.72227C18.0742 6.38614 18.1835 6.05325 18.4005 5.79344C18.6468 5.56448 18.978 5.44756 19.3157 5.47192Z" fill="#E5E7EB"/>
<path d="M27.5584 9.81721H30.2094C30.6515 9.81721 30.9794 9.9179 31.1948 10.1209C31.4101 10.3352 31.5178 10.6632 31.5178 11.1017V18.5502C31.5178 18.7759 31.4101 18.9886 31.229 19.125C31.0414 19.2598 30.8146 19.3313 30.5846 19.3296H21.4978V16.8468H23.8535C23.4832 16.0105 23.3086 15.0996 23.3429 14.187C23.3543 13.3215 23.5827 12.4738 24.0052 11.7187C24.3429 11.1341 24.8356 10.6551 25.4311 10.332C26.0869 9.98447 26.8177 9.80747 27.5584 9.81721ZM29.0381 13.5537C29.0381 12.8538 28.4671 12.2854 27.7639 12.2854C27.1864 12.2854 26.7492 12.4154 26.4539 12.6735C25.8879 13.1704 25.7084 13.9759 25.9189 15.0931C26.1326 16.2541 26.6677 16.8354 27.5225 16.8371H27.7607C28.4638 16.8371 29.0348 16.2687 29.0348 15.5688L29.0381 13.5537ZM27.8325 4.97981C28.0804 4.98956 28.3235 5.05451 28.5454 5.16655C28.7591 5.27697 28.9353 5.44748 29.0544 5.65533C29.2322 5.97198 29.2877 6.34383 29.211 6.69783C29.1131 7.06319 28.8733 7.37497 28.5454 7.56658C28.3284 7.69162 28.0821 7.75494 27.8325 7.7517C27.5878 7.75332 27.3463 7.68837 27.1359 7.56658C26.9254 7.44804 26.7541 7.27267 26.6416 7.05832C26.5208 6.84722 26.4588 6.60852 26.4637 6.36494C26.4621 6.11812 26.5225 5.87292 26.6416 5.65533C26.7509 5.44423 26.9238 5.27372 27.1359 5.16493C27.3512 5.05451 27.5878 4.98955 27.8308 4.97656H27.8325V4.97981Z" fill="#E5E7EB"/>
<path d="M37.0916 9.69971C37.7214 9.69646 38.3413 9.83449 38.909 10.1057C39.4196 10.3671 39.8666 10.7357 40.219 11.1871C40.8977 12.0445 41.3039 13.1942 41.4409 14.6378C41.5225 15.5618 41.5665 16.2941 41.5763 16.8365H43.18V19.3193H42.5503C42.0641 19.3193 41.7183 19.1829 41.5127 18.9134C41.4491 19.5613 41.3006 20.1978 41.0706 20.8067C40.8373 21.4206 40.4588 21.9678 39.9661 22.403C39.0721 23.1792 37.7654 23.5932 36.0459 23.6436C35.1862 23.6777 34.5973 23.5689 34.2791 23.3221C34.1046 23.1954 33.9757 23.0168 33.9072 22.8138C33.824 22.5978 33.8011 22.3656 33.837 22.1383C33.8517 21.794 34.0051 21.4709 34.2628 21.2403C34.5581 21.0406 34.9105 20.9464 35.2661 20.9708H35.5761C36.1389 20.987 36.7017 20.9545 37.258 20.8701C37.798 20.7288 38.2418 20.3472 38.4636 19.8389C38.5844 19.5824 38.6659 19.3079 38.7018 19.027C38.1896 19.2365 37.6414 19.3404 37.0868 19.3323C36.4505 19.3453 35.8224 19.204 35.2531 18.9215C34.7425 18.6519 34.2955 18.2768 33.9431 17.8221C33.5793 17.3577 33.3085 16.83 33.1453 16.2649C32.961 15.6738 32.8696 15.0567 32.8729 14.4381C32.8745 13.8307 32.9659 13.2267 33.1453 12.6454C33.3068 12.0949 33.5776 11.5834 33.9431 11.1417C34.2889 10.6935 34.7392 10.333 35.2531 10.0911C35.8306 9.82475 36.457 9.68997 37.0916 9.69971ZM37.0916 11.9812C36.8274 11.9926 36.5712 12.0673 36.3428 12.2004C36.1324 12.3336 35.9562 12.5171 35.8338 12.733C35.6935 12.9701 35.5891 13.2267 35.5272 13.493C35.4586 13.7755 35.426 14.0662 35.426 14.3569C35.4293 14.6589 35.4635 14.9577 35.5272 15.2516C35.5908 15.5585 35.6935 15.8573 35.8338 16.1382C35.9513 16.398 36.1259 16.6286 36.3428 16.8154C36.5468 16.9989 36.8159 17.0963 37.0916 17.0849C37.3527 17.0947 37.6104 17.0183 37.8225 16.8641C38.0378 16.7179 38.2124 16.5198 38.3315 16.2892C38.4718 16.0408 38.5746 15.7729 38.6366 15.4952C38.6904 15.2094 38.7181 14.922 38.7214 14.6313C38.7181 14.3309 38.6888 14.0321 38.6366 13.7366C38.5713 13.4427 38.4702 13.1585 38.3315 12.8905C38.2157 12.6389 38.0411 12.418 37.8225 12.2475C37.6137 12.0851 37.3576 11.9909 37.0916 11.9812Z" fill="#E5E7EB"/>
<path d="M48.5454 9.81934H51.1964C51.6385 9.81934 51.9664 9.92002 52.1817 10.123C52.3955 10.3373 52.5048 10.6654 52.5048 11.1038V16.201C52.5048 16.5534 52.7919 16.8392 53.1459 16.8392H53.4134C53.7658 16.8376 54.0529 17.1217 54.0546 17.4725L54.0627 18.6822C54.066 19.0346 53.7805 19.3236 53.4265 19.3253H53.4216C53.1948 19.3318 52.9681 19.2863 52.7625 19.1921C52.5635 19.0866 52.3237 19.0866 52.1246 19.1921C51.955 19.2847 51.7625 19.3301 51.5683 19.3236H43.1194C42.7654 19.3236 42.4783 19.0379 42.4783 18.6855V17.4757C42.4783 17.1234 42.7654 16.8376 43.1194 16.8376H43.9302C44.2826 16.8392 44.5697 16.5566 44.5713 16.2059C44.5713 16.1491 44.5648 16.0922 44.5485 16.037C44.3854 15.4329 44.3119 14.8078 44.3299 14.1826C44.3429 13.3171 44.5697 12.4694 44.9922 11.7144C45.3299 11.1298 45.8226 10.6507 46.4181 10.3276C47.0739 9.98172 47.8047 9.80797 48.5454 9.81934ZM50.0218 12.9274C50.0218 12.575 49.7363 12.2892 49.3823 12.2892H48.7477C48.1702 12.2892 47.7346 12.4191 47.4393 12.6773C46.8732 13.1742 46.6954 13.9796 46.9042 15.0968C47.1196 16.2578 47.653 16.8392 48.5079 16.8408H49.379C49.733 16.8392 50.0185 16.555 50.0185 16.2026L50.0218 12.9274ZM48.7493 4.98681C48.795 4.98356 48.8407 4.98356 48.8863 4.98681C49.1115 5.00143 49.3301 5.06151 49.5324 5.16381C49.7461 5.27423 49.9223 5.44473 50.0414 5.65258C50.211 5.95137 50.2698 6.29887 50.2078 6.635C50.2012 6.6756 50.1915 6.71457 50.18 6.75192C50.074 7.09455 49.844 7.38359 49.534 7.56384C49.317 7.68887 49.0707 7.7522 48.8211 7.75058C48.5764 7.7522 48.3349 7.68725 48.1245 7.56384C47.9157 7.4453 47.7444 7.26992 47.6334 7.0572C47.5095 6.8461 47.4458 6.60739 47.4458 6.36382C47.4458 6.11537 47.5111 5.8718 47.6334 5.6542C47.7427 5.44473 47.914 5.27261 48.1245 5.16543C48.3154 5.06476 48.5291 5.00467 48.7493 4.98681Z" fill="#E5E7EB"/>
<path d="M64.8082 9.92188C65.4167 9.9235 66.0219 10.0031 66.6092 10.1573C67.1884 10.31 67.7447 10.5438 68.2569 10.8507C68.7626 11.1414 69.2162 11.5132 69.5995 11.95C69.9845 12.382 70.2863 12.8805 70.4903 13.4229C70.7138 14.0009 70.8231 14.6148 70.8133 15.2334V16.8297H72.3941V19.3336H71.7644C71.244 19.3336 70.8932 19.1761 70.7105 18.8611C70.642 19.0202 70.5147 19.1469 70.3549 19.2151C70.0824 19.3109 69.7937 19.3515 69.5049 19.3336H53.3689V16.8508H54.4065V14.6651C54.4065 14.1926 54.5027 13.8483 54.6952 13.6356C54.9106 13.4212 55.2385 13.3141 55.6806 13.3124C56.1357 13.3124 56.4685 13.4212 56.6839 13.6356C56.8992 13.8499 57.0069 14.1926 57.0069 14.6651V16.8475H58.6725V14.9444C58.6644 14.3306 58.7802 13.72 59.0135 13.1517C59.2305 12.6239 59.5551 12.1449 59.9646 11.7471C60.3659 11.3444 60.8243 11.0033 61.3235 10.7322C61.8554 10.4577 62.4214 10.2531 63.0055 10.1216C63.5977 9.99007 64.2029 9.9235 64.8082 9.92188ZM64.8082 12.494C64.3546 12.4892 63.9027 12.546 63.4655 12.6629C63.0544 12.7587 62.6645 12.9243 62.3105 13.1533C61.9696 13.3449 61.6873 13.6258 61.4948 13.9636C61.2876 14.3046 61.1816 14.6976 61.1881 15.097V15.5728C61.1881 16.2727 61.7591 16.841 62.4622 16.841H67.0513C67.7544 16.841 68.3254 16.2727 68.3254 15.5728V15.3016C68.3287 14.8827 68.2226 14.4686 68.0204 14.1016C67.823 13.7557 67.557 13.4537 67.2373 13.215C66.8947 12.9666 66.5081 12.7814 66.0986 12.6727C65.681 12.5525 65.2454 12.4924 64.8082 12.494Z" fill="#E5E7EB"/>
<path d="M78.2646 9.82145C78.8861 9.81333 79.5028 9.94649 80.0656 10.2095C80.5746 10.4661 81.02 10.8298 81.3756 11.2732C81.728 11.7376 81.9988 12.2572 82.1734 12.8126C82.3594 13.3858 82.4523 13.9833 82.4458 14.5858C82.4523 15.1996 82.3594 15.8118 82.1734 16.3964C82.1163 16.5539 82.0608 16.7 82.0037 16.8364C81.8406 17.257 81.604 17.6451 81.3071 17.9861C80.9694 18.4018 80.5436 18.7363 80.0607 18.9669C79.493 19.2121 78.878 19.3323 78.2597 19.3225H71.7244V16.8397H74.5613C74.4749 16.6692 74.4064 16.4922 74.359 16.307C74.1714 15.7225 74.0801 15.1119 74.0866 14.4981C74.0801 13.894 74.1731 13.2916 74.359 12.7151C74.532 12.1744 74.8028 11.6694 75.1568 11.2244C75.5043 10.7876 75.9448 10.4353 76.4489 10.1917C77.0166 9.93349 77.6381 9.80683 78.2646 9.82145ZM78.2646 12.0705C78.0068 12.0818 77.7556 12.1581 77.5337 12.2897C76.798 12.7525 76.5011 13.5693 76.643 14.7417C76.7458 15.5974 77.0427 16.2177 77.5337 16.6026C77.736 16.778 77.9954 16.8754 78.2646 16.8738C78.5256 16.877 78.7817 16.8007 78.9971 16.6545C79.6186 16.2145 79.9237 15.4821 79.9155 14.4559C79.8927 13.4848 79.586 12.7752 78.9971 12.327C78.7866 12.1663 78.5305 12.077 78.2646 12.0705Z" fill="#E5E7EB"/>
<path d="M91.677 0H134.106C135.152 0 136 0.844397 136 1.88528V28.6006C136 38.2105 128.174 46 118.52 46H91.677C90.6313 46 89.783 45.1556 89.783 44.1147V1.88528C89.783 0.842773 90.6313 0 91.677 0Z" fill="#5A409B"/>
<path d="M120.881 9.5H123.473C124.961 9.5 126.165 10.7 126.165 12.1793V14.7596C126.165 16.2389 124.959 17.4389 123.473 17.4389H120.881C119.395 17.4389 118.189 16.2389 118.189 14.7596V12.1793C118.189 10.7 119.393 9.5 120.881 9.5Z" fill="#FDCD05"/>
<path d="M111.596 9.5H114.188C115.674 9.5 116.88 10.7 116.88 12.1793V14.7596C116.88 16.2389 115.674 17.4389 114.188 17.4389H111.596C110.11 17.4389 108.904 16.2389 108.904 14.7596V12.1793C108.902 10.7 110.108 9.5 111.596 9.5Z" fill="#FDCD05"/>
<path d="M102.311 9.5H104.903C106.389 9.5 107.595 10.7 107.595 12.1793V14.7596C107.595 16.2389 106.389 17.4389 104.903 17.4389H102.311C100.824 17.4389 99.6189 16.2389 99.6189 14.7596V12.1793C99.6189 10.7 100.824 9.5 102.311 9.5Z" fill="#FDCD05"/>
<path d="M120.881 18.8203H123.473C124.961 18.8203 126.165 20.0203 126.165 21.4996V24.0799C126.165 25.5608 124.959 26.7592 123.473 26.7592H120.881C119.395 26.7592 118.189 25.5592 118.189 24.0799V21.4996C118.189 20.0203 119.393 18.8203 120.881 18.8203Z" fill="#FDCD05"/>
<path d="M111.596 18.8203H114.188C115.674 18.8203 116.88 20.0203 116.88 21.4996V24.0799C116.88 25.5608 115.674 26.7592 114.188 26.7592H111.596C110.11 26.7592 108.904 25.5592 108.904 24.0799V21.4996C108.902 20.0203 110.108 18.8203 111.596 18.8203Z" fill="#FDCD05"/>
<path d="M102.311 18.8203H104.903C106.389 18.8203 107.595 20.0203 107.595 21.4996V24.0799C107.595 25.5608 106.389 26.7592 104.903 26.7592H102.311C100.824 26.7592 99.6189 25.5592 99.6189 24.0799V21.4996C99.6189 20.0203 100.824 18.8203 102.311 18.8203Z" fill="#FDCD05"/>
<path d="M122.174 28.1406C124.376 28.1406 126.163 29.9187 126.163 32.1109C126.163 34.3031 124.376 36.0812 122.174 36.0812C119.972 36.0812 118.185 34.3031 118.185 32.1109C118.187 29.9187 119.972 28.1406 122.174 28.1406Z" fill="#FDCD05"/>
<path d="M111.596 28.1406H114.188C115.674 28.1406 116.88 29.3406 116.88 30.82V33.4002C116.88 34.8812 115.674 36.0796 114.188 36.0796H111.596C110.11 36.0796 108.904 34.8795 108.904 33.4002V30.82C108.902 29.3406 110.108 28.1406 111.596 28.1406Z" fill="#FDCD05"/>
<path d="M102.311 28.1406H104.903C106.389 28.1406 107.595 29.3406 107.595 30.82V33.4002C107.595 34.8812 106.389 36.0796 104.903 36.0796H102.311C100.824 36.0796 99.6189 34.8795 99.6189 33.4002V30.82C99.6189 29.3406 100.824 28.1406 102.311 28.1406Z" fill="#FDCD05"/>
</svg>
