<svg width="47" height="46" viewBox="0 0 47 46" fill="none" xmlns="http://www.w3.org/2000/svg">
<path d="M2.28551 0H44.7145C45.7603 0 46.6086 0.844397 46.6086 1.88528V28.6006C46.6086 38.2105 38.7828 46 29.1283 46H2.28551C1.2398 46 0.391479 45.1556 0.391479 44.1147V1.88528C0.391479 0.842773 1.2398 0 2.28551 0Z" fill="#5A409B"/>
<path d="M31.4895 9.5H34.0818C35.5696 9.5 36.7736 10.7 36.7736 12.1793V14.7596C36.7736 16.2389 35.568 17.4389 34.0818 17.4389H31.4895C30.0033 17.4389 28.7977 16.2389 28.7977 14.7596V12.1793C28.7977 10.7 30.0017 9.5 31.4895 9.5Z" fill="#FDCD05"/>
<path d="M22.2044 9.5H24.7966C26.2828 9.5 27.4884 10.7 27.4884 12.1793V14.7596C27.4884 16.2389 26.2828 17.4389 24.7966 17.4389H22.2044C20.7182 17.4389 19.5126 16.2389 19.5126 14.7596V12.1793C19.5109 10.7 20.7165 9.5 22.2044 9.5Z" fill="#FDCD05"/>
<path d="M12.9192 9.5H15.5115C16.9977 9.5 18.2033 10.7 18.2033 12.1793V14.7596C18.2033 16.2389 16.9977 17.4389 15.5115 17.4389H12.9192C11.433 17.4389 10.2274 16.2389 10.2274 14.7596V12.1793C10.2274 10.7 11.433 9.5 12.9192 9.5Z" fill="#FDCD05"/>
<path d="M31.4895 18.8203H34.0818C35.5696 18.8203 36.7736 20.0203 36.7736 21.4996V24.0799C36.7736 25.5608 35.568 26.7592 34.0818 26.7592H31.4895C30.0033 26.7592 28.7977 25.5592 28.7977 24.0799V21.4996C28.7977 20.0203 30.0017 18.8203 31.4895 18.8203Z" fill="#FDCD05"/>
<path d="M22.2044 18.8203H24.7966C26.2828 18.8203 27.4884 20.0203 27.4884 21.4996V24.0799C27.4884 25.5608 26.2828 26.7592 24.7966 26.7592H22.2044C20.7182 26.7592 19.5126 25.5592 19.5126 24.0799V21.4996C19.5109 20.0203 20.7165 18.8203 22.2044 18.8203Z" fill="#FDCD05"/>
<path d="M12.9192 18.8203H15.5115C16.9977 18.8203 18.2033 20.0203 18.2033 21.4996V24.0799C18.2033 25.5608 16.9977 26.7592 15.5115 26.7592H12.9192C11.433 26.7592 10.2274 25.5592 10.2274 24.0799V21.4996C10.2274 20.0203 11.433 18.8203 12.9192 18.8203Z" fill="#FDCD05"/>
<path d="M32.7826 28.1406C34.9849 28.1406 36.7713 29.9187 36.7713 32.1109C36.7713 34.3031 34.9849 36.0812 32.7826 36.0812C30.5802 36.0812 28.7938 34.3031 28.7938 32.1109C28.7955 29.9187 30.5802 28.1406 32.7826 28.1406Z" fill="#FDCD05"/>
<path d="M22.2044 28.1406H24.7966C26.2828 28.1406 27.4884 29.3406 27.4884 30.82V33.4002C27.4884 34.8812 26.2828 36.0796 24.7966 36.0796H22.2044C20.7182 36.0796 19.5126 34.8795 19.5126 33.4002V30.82C19.5109 29.3406 20.7165 28.1406 22.2044 28.1406Z" fill="#FDCD05"/>
<path d="M12.9192 28.1406H15.5115C16.9977 28.1406 18.2033 29.3406 18.2033 30.82V33.4002C18.2033 34.8812 16.9977 36.0796 15.5115 36.0796H12.9192C11.433 36.0796 10.2274 34.8795 10.2274 33.4002V30.82C10.2274 29.3406 11.433 28.1406 12.9192 28.1406Z" fill="#FDCD05"/>
</svg>
