<svg width="136" height="46" viewBox="0 0 136 46" fill="none" xmlns="http://www.w3.org/2000/svg">
<path d="M3.3269 26.1602C4.23395 26.1602 4.85061 26.6814 5.17362 27.7239L6.97141 33.7061L8.8165 27.7077C9.11994 26.6863 9.73987 26.1748 10.6795 26.1748C11.6633 26.1748 12.2408 26.7707 12.4137 27.9642L13.8395 37.704V37.769C13.8395 37.7771 13.8444 37.7836 13.8526 37.7852C13.8542 37.7852 13.8558 37.7852 13.8558 37.7852L13.8722 37.8177C13.8934 38.183 13.758 38.5419 13.5002 38.8017C13.2376 39.0437 12.8868 39.172 12.5295 39.1557C11.7089 39.1557 11.244 38.7254 11.1363 37.8648L10.2766 31.5448C10.0808 32.1554 9.76597 33.2011 9.32876 34.6804C8.89155 36.1597 8.55385 37.2591 8.3173 37.9801C8.05628 38.7774 7.59786 39.1752 6.94041 39.1736C6.23892 39.1736 5.77397 38.7757 5.54721 37.9801L3.78695 31.5107L2.70044 37.8469C2.66782 38.2074 2.51936 38.55 2.27955 38.8212C2.02179 39.0583 1.67594 39.1784 1.32519 39.1525C0.972811 39.1736 0.625325 39.0534 0.361041 38.8212C0.108177 38.5614 -0.020703 38.2074 0.00376774 37.8469C0.00213635 37.7284 0.0135568 37.6082 0.0363962 37.4913L1.57642 27.9448C1.77219 26.7561 2.35623 26.1602 3.3269 26.1602Z" fill="#231F20"/>
<path d="M20.9864 26.2109C21.7759 26.2109 22.311 26.6039 22.59 27.3882C25.0942 34.2457 26.3471 37.7385 26.3471 37.8684C26.3601 38.2176 26.2313 38.557 25.9914 38.8119C25.7369 39.0636 25.3862 39.1951 25.0273 39.1756C24.378 39.1756 23.9457 38.8963 23.7303 38.3361L23.1479 36.8194H18.8721C18.8085 36.9705 18.7285 37.1881 18.629 37.4722C18.5311 37.7564 18.461 37.9594 18.4186 38.0763C18.1592 38.8087 17.6828 39.174 16.9927 39.174C16.6338 39.2016 16.2847 39.0603 16.0449 38.794C15.8279 38.5277 15.7154 38.1932 15.7284 37.8506C15.7366 37.6703 15.7692 37.4901 15.8263 37.318L19.3419 27.3866C19.6193 26.6039 20.1658 26.2109 20.9864 26.2109ZM19.771 34.1125H22.1365C22.0174 33.7683 21.8494 33.2974 21.634 32.6933C21.4187 32.0908 21.2033 31.4657 20.9864 30.7999L19.771 34.1125Z" fill="#231F20"/>
<path d="M31.9038 25.8221C32.9561 25.8204 33.9806 26.1598 34.8207 26.7899C35.3167 27.1552 35.5663 27.5904 35.5663 28.0954C35.5679 28.4559 35.4358 28.8034 35.1943 29.0714C34.9627 29.349 34.6168 29.5066 34.253 29.4984C33.8647 29.4822 33.4928 29.3344 33.2008 29.0795C32.8304 28.7758 32.3688 28.6053 31.8891 28.5956C31.5955 28.5761 31.3035 28.6492 31.0555 28.8051C30.8646 28.9447 30.77 29.1915 30.77 29.5488C30.7684 29.6965 30.801 29.8427 30.8679 29.9742C30.9495 30.1204 31.0669 30.2421 31.2088 30.3298C31.3704 30.4386 31.5123 30.5231 31.6297 30.5864C31.7472 30.6513 31.9479 30.7455 32.2301 30.8706C32.5123 30.9956 32.7097 31.0817 32.8288 31.1369C34.0067 31.6955 34.8795 32.2573 35.4455 32.8224C36.0116 33.3859 36.2955 34.141 36.2955 35.0877C36.2955 36.3997 35.8632 37.4455 35.0002 38.2249C34.1372 39.0044 33.0458 39.3941 31.7276 39.3941C30.6215 39.3892 29.5399 39.0644 28.6166 38.4604C28.1418 38.1957 27.8515 37.6939 27.8564 37.1532C27.8564 36.2926 28.2887 35.8622 29.1517 35.8639C29.5008 35.8639 29.8417 35.958 30.1403 36.1367C30.6134 36.4436 31.1632 36.6108 31.7276 36.6206C32.1665 36.6352 32.5972 36.502 32.9495 36.2406C33.2807 35.9889 33.4667 35.5911 33.4455 35.177C33.4406 34.8798 33.3003 34.5989 33.0637 34.4187C32.6216 34.0955 32.1436 33.8259 31.6379 33.6132C31.1844 33.3973 30.8336 33.2284 30.584 33.1033C30.2594 32.9312 29.9445 32.738 29.6443 32.5253C29.3132 32.3125 29.013 32.0543 28.7536 31.7588C28.5269 31.4746 28.3409 31.1596 28.2038 30.8235C28.0407 30.4403 27.9575 30.0294 27.9591 29.6137C27.9608 28.6232 28.3604 27.6732 29.0701 26.9766C29.8059 26.2085 30.8369 25.7896 31.9038 25.8221Z" fill="#231F20"/>
<path d="M38.9112 26.2109H43.4791C44.3877 26.2109 44.8413 26.6575 44.8396 27.5506C44.838 28.4437 44.3845 28.8903 43.4791 28.8903H40.1918V31.4218H42.5084C43.3926 31.4218 43.8363 31.8732 43.838 32.7761C43.838 33.6578 43.3942 34.0995 42.5084 34.0995H40.1918V37.9529C40.1918 38.7681 39.7383 39.1773 38.8312 39.1789C37.9226 39.1805 37.4756 38.7713 37.4854 37.9529V27.713C37.4854 26.7111 37.9601 26.2109 38.9112 26.2109Z" fill="#231F20"/>
<path d="M54.7687 26.1875C55.71 26.1875 56.1798 26.6649 56.1782 27.623V33.9917C56.1978 34.849 56.0575 35.7016 55.7638 36.507C55.5322 37.1549 55.1325 37.733 54.6056 38.1779C54.1161 38.5741 53.5549 38.8745 52.9546 39.0645C52.3037 39.2659 51.6266 39.3633 50.9447 39.3552C50.2661 39.3633 49.5923 39.2643 48.9446 39.0645C48.3557 38.8778 47.8125 38.5757 47.341 38.1779C46.8336 37.7265 46.4535 37.15 46.2382 36.507C45.9608 35.6983 45.8271 34.8474 45.8418 33.9917V27.6246C45.8418 26.6698 46.3067 26.1907 47.235 26.1891C48.1632 26.1875 48.6282 26.6665 48.6282 27.6246V33.8812C48.6282 35.6545 49.4536 36.5411 51.1062 36.5411C51.8191 36.5411 52.3722 36.3413 52.767 35.9435C53.1618 35.5457 53.3575 34.8572 53.3575 33.8796V27.6246C53.3592 26.6665 53.829 26.1875 54.7687 26.1875Z" fill="#231F20"/>
<path d="M59.2026 26.2109H63.7705C64.6776 26.2109 65.1311 26.6575 65.1311 27.5506C65.1311 28.4437 64.6776 28.8903 63.7705 28.8903H60.4816V31.4218H62.7982C63.6841 31.4218 64.1278 31.8732 64.1278 32.7761C64.1278 33.6578 63.6841 34.0995 62.7982 34.0995H60.4816V37.9529C60.4816 38.7681 60.0281 39.1773 59.1211 39.1789C58.214 39.1805 57.7654 38.7713 57.7784 37.9529V27.713C57.7784 26.7111 58.2532 26.2109 59.2026 26.2109Z" fill="#231F20"/>
<path d="M70.3356 26.2109C71.1236 26.2109 71.6587 26.6039 71.9393 27.3882C74.4435 34.2457 75.6964 37.7385 75.6964 37.8684C75.7078 38.2176 75.5805 38.557 75.3391 38.8119C75.0846 39.0636 74.7339 39.1951 74.375 39.1756C73.7257 39.1756 73.2933 38.8963 73.078 38.3361L72.4956 36.8194H68.2197C68.1545 36.9705 68.0729 37.1881 67.975 37.4722C67.8771 37.7564 67.807 37.9594 67.7646 38.0763C67.5068 38.8087 67.0321 39.174 66.3388 39.174C65.9815 39.2016 65.6307 39.0603 65.3909 38.794C65.1756 38.5277 65.063 38.1932 65.0761 37.8506C65.0826 37.6703 65.1152 37.4901 65.1723 37.318L68.6879 27.3866C68.9669 26.6055 69.5151 26.2109 70.3356 26.2109ZM69.1219 34.1125H71.489C71.3699 33.7683 71.2019 33.2974 70.9866 32.6933C70.7712 32.0908 70.5559 31.4657 70.3405 30.7999L69.1219 34.1125Z" fill="#231F20"/>
<path d="M76.0854 26.1875H81.8214C82.7284 26.1875 83.1819 26.6389 83.1819 27.5418C83.1819 28.4122 82.7284 28.8473 81.8214 28.849H80.2814V37.7508C80.2814 38.6975 79.8441 39.1701 78.9681 39.1701C78.061 39.1701 77.6091 38.6975 77.6091 37.7508V28.8473H76.0854C75.1572 28.8473 74.6922 28.4122 74.6922 27.5402C74.6922 26.6389 75.1555 26.1875 76.0854 26.1875Z" fill="#231F20"/>
<path d="M0.79321 9.95233C1.00692 9.73798 1.33646 9.63081 1.77857 9.63081C2.22067 9.63081 2.54858 9.73636 2.76392 9.95233C2.97926 10.1667 3.08694 10.5061 3.08694 10.9672V14.2474C3.06247 14.7637 3.15546 15.2785 3.35938 15.7527C3.50457 16.1164 3.76722 16.4201 4.10818 16.6165C4.43283 16.7643 4.78684 16.839 5.14411 16.8358H14.2309V11.0322C14.2309 10.204 14.6502 9.79157 15.4887 9.79157C15.8232 9.76559 16.1543 9.876 16.4072 10.0968C16.6258 10.355 16.7351 10.6895 16.7123 11.0257V17.7825C16.7123 18.2907 16.5948 18.6691 16.3566 18.9321C16.1184 19.1952 15.7612 19.3219 15.2881 19.3219H5.25015C4.65143 19.3251 4.05598 19.239 3.48173 19.0685C2.91401 18.8948 2.38707 18.6074 1.93518 18.2225C1.45555 17.8052 1.08849 17.2774 0.866624 16.6831C0.589289 15.9362 0.457145 15.1453 0.47509 14.3497V10.9656C0.473459 10.5061 0.58113 10.1667 0.79321 9.95233ZM7.01041 5.96094C7.25838 5.97555 7.49983 6.03889 7.72333 6.14768C7.92725 6.27272 8.10181 6.43997 8.23232 6.6397C8.34162 6.85567 8.40198 7.09275 8.41014 7.33308C8.40198 7.5799 8.34162 7.82185 8.23232 8.0427C8.1116 8.25379 7.93541 8.42917 7.72333 8.54933C7.50309 8.663 7.25838 8.72633 7.01041 8.73608C6.76734 8.72633 6.52916 8.66138 6.31381 8.54933C6.10989 8.4243 5.94023 8.24892 5.82114 8.0427C5.70204 7.8251 5.64005 7.58153 5.64332 7.33308C5.64168 7.09113 5.70368 6.85243 5.82114 6.6397C5.93044 6.42861 6.10173 6.2581 6.31381 6.14768C6.53079 6.03564 6.76897 5.9723 7.01041 5.96094ZM10.7332 5.96094C10.9812 5.97555 11.2226 6.03889 11.4461 6.14768C11.6501 6.27272 11.8246 6.43997 11.9551 6.6397C12.0661 6.85405 12.1313 7.09113 12.1427 7.33308C12.133 7.5799 12.0677 7.82185 11.9551 8.0427C11.8393 8.25867 11.6631 8.43404 11.4461 8.54933C11.2243 8.663 10.9812 8.72633 10.7332 8.73608C10.4902 8.72633 10.252 8.66138 10.0366 8.54933C9.83108 8.4243 9.66304 8.25055 9.54559 8.0427C9.4216 7.82673 9.35798 7.58153 9.35798 7.33308C9.35798 7.0895 9.42323 6.8508 9.54559 6.6397C9.65326 6.42861 9.82618 6.25648 10.0366 6.14768C10.2536 6.03564 10.4902 5.9723 10.7332 5.96094Z" fill="#231F20"/>
<path d="M19.3148 5.47192C20.1468 5.47192 20.5645 5.88925 20.571 6.7239V16.8323H22.1746V19.3151H19.5187C19.044 19.3151 18.6867 19.1852 18.4502 18.9254C18.212 18.6656 18.0929 18.2824 18.0929 17.7757V6.72227C18.0733 6.38614 18.1826 6.05325 18.3996 5.79344C18.6459 5.56448 18.9771 5.44756 19.3148 5.47192Z" fill="#231F20"/>
<path d="M27.5575 9.81721H30.2085C30.6506 9.81721 30.9785 9.9179 31.1939 10.1209C31.4092 10.3352 31.5169 10.6632 31.5169 11.1017V18.5502C31.5169 18.7759 31.4092 18.9886 31.2281 19.125C31.0405 19.2598 30.8138 19.3313 30.5837 19.3296H21.4969V16.8468H23.8526C23.4823 16.0105 23.3078 15.0996 23.342 14.187C23.3534 13.3215 23.5818 12.4738 24.0044 11.7187C24.3421 11.1341 24.8347 10.6551 25.4302 10.332C26.086 9.98447 26.8169 9.80747 27.5575 9.81721ZM29.0372 13.5537C29.0372 12.8538 28.4662 12.2854 27.7631 12.2854C27.1856 12.2854 26.7483 12.4154 26.4531 12.6735C25.887 13.1704 25.7075 13.9759 25.918 15.0931C26.1317 16.2541 26.6668 16.8354 27.5216 16.8371H27.7598C28.4629 16.8371 29.0339 16.2687 29.0339 15.5688L29.0372 13.5537ZM27.8316 4.97981C28.0796 4.98956 28.3226 5.05451 28.5445 5.16655C28.7582 5.27697 28.9344 5.44748 29.0535 5.65533C29.2313 5.97198 29.2868 6.34383 29.2101 6.69783C29.1122 7.06319 28.8724 7.37497 28.5445 7.56658C28.3275 7.69162 28.0812 7.75494 27.8316 7.7517C27.5869 7.75332 27.3454 7.68837 27.135 7.56658C26.9245 7.44804 26.7532 7.27267 26.6407 7.05832C26.52 6.84722 26.458 6.60852 26.4629 6.36494C26.4612 6.11812 26.5216 5.87292 26.6407 5.65533C26.75 5.44423 26.9229 5.27372 27.135 5.16493C27.3503 5.05451 27.5869 4.98955 27.8299 4.97656H27.8316V4.97981Z" fill="#231F20"/>
<path d="M37.0908 9.69971C37.7205 9.69646 38.3404 9.83449 38.9081 10.1057C39.4187 10.3671 39.8657 10.7357 40.2181 11.1871C40.8968 12.0445 41.303 13.1942 41.44 14.6378C41.5216 15.5618 41.5656 16.2941 41.5754 16.8365H43.1791V19.3193H42.5494C42.0632 19.3193 41.7174 19.1829 41.5118 18.9134C41.4482 19.5613 41.2997 20.1978 41.0697 20.8067C40.8364 21.4206 40.4579 21.9678 39.9653 22.403C39.0713 23.1792 37.7645 23.5932 36.045 23.6436C35.1853 23.6777 34.5964 23.5689 34.2783 23.3221C34.1037 23.1954 33.9748 23.0168 33.9063 22.8138C33.8231 22.5978 33.8003 22.3656 33.8362 22.1383C33.8508 21.794 34.0042 21.4709 34.2619 21.2403C34.5572 21.0406 34.9096 20.9464 35.2652 20.9708H35.5752C36.138 20.987 36.7009 20.9545 37.2572 20.8701C37.7972 20.7288 38.2409 20.3472 38.4628 19.8389C38.5835 19.5824 38.665 19.3079 38.7009 19.027C38.1887 19.2365 37.6405 19.3404 37.0859 19.3323C36.4496 19.3453 35.8215 19.204 35.2522 18.9215C34.7416 18.6519 34.2946 18.2768 33.9422 17.8221C33.5784 17.3577 33.3076 16.83 33.1444 16.2649C32.9601 15.6738 32.8687 15.0567 32.872 14.4381C32.8736 13.8307 32.965 13.2267 33.1444 12.6454C33.306 12.0949 33.5768 11.5834 33.9422 11.1417C34.288 10.6935 34.7383 10.333 35.2522 10.0911C35.8297 9.82475 36.4562 9.68997 37.0908 9.69971ZM37.0908 11.9812C36.8265 11.9926 36.5704 12.0673 36.342 12.2004C36.1315 12.3336 35.9553 12.5171 35.833 12.733C35.6927 12.9701 35.5883 13.2267 35.5263 13.493C35.4577 13.7755 35.4251 14.0662 35.4251 14.3569C35.4284 14.6589 35.4626 14.9577 35.5263 15.2516C35.5899 15.5585 35.6927 15.8573 35.833 16.1382C35.9504 16.398 36.125 16.6286 36.342 16.8154C36.5459 16.9989 36.8151 17.0963 37.0908 17.0849C37.3518 17.0947 37.6095 17.0183 37.8216 16.8641C38.037 16.7179 38.2115 16.5198 38.3306 16.2892C38.4709 16.0408 38.5737 15.7729 38.6357 15.4952C38.6895 15.2094 38.7173 14.922 38.7205 14.6313C38.7173 14.3309 38.6879 14.0321 38.6357 13.7366C38.5704 13.4427 38.4693 13.1585 38.3306 12.8905C38.2148 12.6389 38.0402 12.418 37.8216 12.2475C37.6128 12.0851 37.3567 11.9909 37.0908 11.9812Z" fill="#231F20"/>
<path d="M48.5445 9.81934H51.1955C51.6376 9.81934 51.9655 9.92002 52.1809 10.123C52.3946 10.3373 52.5039 10.6654 52.5039 11.1038V16.201C52.5039 16.5534 52.791 16.8392 53.145 16.8392H53.4126C53.7649 16.8376 54.0521 17.1217 54.0537 17.4725L54.0618 18.6822C54.0651 19.0346 53.7796 19.3236 53.4256 19.3253H53.4207C53.1939 19.3318 52.9672 19.2863 52.7616 19.1921C52.5626 19.0866 52.3228 19.0866 52.1238 19.1921C51.9541 19.2847 51.7616 19.3301 51.5675 19.3236H43.1185C42.7645 19.3236 42.4774 19.0379 42.4774 18.6855V17.4757C42.4774 17.1234 42.7645 16.8376 43.1185 16.8376H43.9293C44.2817 16.8392 44.5688 16.5566 44.5705 16.2059C44.5705 16.1491 44.5639 16.0922 44.5476 16.037C44.3845 15.4329 44.3111 14.8078 44.329 14.1826C44.3421 13.3171 44.5688 12.4694 44.9913 11.7144C45.329 11.1298 45.8217 10.6507 46.4172 10.3276C47.073 9.98172 47.8039 9.80797 48.5445 9.81934ZM50.0209 12.9274C50.0209 12.575 49.7354 12.2892 49.3814 12.2892H48.7468C48.1693 12.2892 47.7337 12.4191 47.4384 12.6773C46.8723 13.1742 46.6945 13.9796 46.9033 15.0968C47.1187 16.2578 47.6521 16.8392 48.507 16.8408H49.3781C49.7322 16.8392 50.0176 16.555 50.0176 16.2026L50.0209 12.9274ZM48.7484 4.98681C48.7941 4.98356 48.8398 4.98356 48.8855 4.98681C49.1106 5.00143 49.3292 5.06151 49.5315 5.16381C49.7452 5.27423 49.9214 5.44473 50.0405 5.65258C50.2101 5.95137 50.2689 6.29887 50.2069 6.635C50.2004 6.6756 50.1906 6.71457 50.1792 6.75192C50.0731 7.09455 49.8431 7.38359 49.5331 7.56384C49.3161 7.68887 49.0698 7.7522 48.8202 7.75058C48.5755 7.7522 48.3341 7.68725 48.1236 7.56384C47.9148 7.4453 47.7435 7.26992 47.6326 7.0572C47.5086 6.8461 47.445 6.60739 47.445 6.36382C47.445 6.11537 47.5102 5.8718 47.6326 5.6542C47.7419 5.44473 47.9132 5.27261 48.1236 5.16543C48.3145 5.06476 48.5282 5.00467 48.7484 4.98681Z" fill="#231F20"/>
<path d="M64.8073 9.92188C65.4158 9.9235 66.021 10.0031 66.6083 10.1573C67.1875 10.31 67.7438 10.5438 68.256 10.8507C68.7618 11.1414 69.2153 11.5132 69.5986 11.95C69.9837 12.382 70.2855 12.8805 70.4894 13.4229C70.7129 14.0009 70.8222 14.6148 70.8124 15.2334V16.8297H72.3932V19.3336H71.7635C71.2431 19.3336 70.8923 19.1761 70.7096 18.8611C70.6411 19.0202 70.5139 19.1469 70.354 19.2151C70.0815 19.3109 69.7928 19.3515 69.504 19.3336H53.368V16.8508H54.4056V14.6651C54.4056 14.1926 54.5018 13.8483 54.6943 13.6356C54.9097 13.4212 55.2376 13.3141 55.6797 13.3124C56.1348 13.3124 56.4676 13.4212 56.683 13.6356C56.8983 13.8499 57.006 14.1926 57.006 14.6651V16.8475H58.6716V14.9444C58.6635 14.3306 58.7793 13.72 59.0126 13.1517C59.2296 12.6239 59.5542 12.1449 59.9637 11.7471C60.365 11.3444 60.8234 11.0033 61.3226 10.7322C61.8545 10.4577 62.4206 10.2531 63.0046 10.1216C63.5968 9.99007 64.202 9.9235 64.8073 9.92188ZM64.8073 12.494C64.3537 12.4892 63.9019 12.546 63.4646 12.6629C63.0535 12.7587 62.6636 12.9243 62.3096 13.1533C61.9687 13.3449 61.6864 13.6258 61.4939 13.9636C61.2867 14.3046 61.1807 14.6976 61.1872 15.097V15.5728C61.1872 16.2727 61.7582 16.841 62.4613 16.841H67.0504C67.7536 16.841 68.3245 16.2727 68.3245 15.5728V15.3016C68.3278 14.8827 68.2218 14.4686 68.0195 14.1016C67.8221 13.7557 67.5562 13.4537 67.2364 13.215C66.8938 12.9666 66.5072 12.7814 66.0977 12.6727C65.6801 12.5525 65.2445 12.4924 64.8073 12.494Z" fill="#231F20"/>
<path d="M78.2637 9.82145C78.8852 9.81333 79.5019 9.94649 80.0647 10.2095C80.5737 10.4661 81.0191 10.8298 81.3747 11.2732C81.7271 11.7376 81.9979 12.2572 82.1725 12.8126C82.3585 13.3858 82.4515 13.9833 82.4449 14.5858C82.4515 15.1996 82.3585 15.8118 82.1725 16.3964C82.1154 16.5539 82.0599 16.7 82.0028 16.8364C81.8397 17.257 81.6031 17.6451 81.3062 17.9861C80.9685 18.4018 80.5427 18.7363 80.0598 18.9669C79.4921 19.2121 78.8771 19.3323 78.2588 19.3225H71.7235V16.8397H74.5605C74.474 16.6692 74.4055 16.4922 74.3582 16.307C74.1705 15.7225 74.0792 15.1119 74.0857 14.4981C74.0792 13.894 74.1722 13.2916 74.3582 12.7151C74.5311 12.1744 74.8019 11.6694 75.1559 11.2244C75.5034 10.7876 75.9439 10.4353 76.448 10.1917C77.0157 9.93349 77.6372 9.80683 78.2637 9.82145ZM78.2637 12.0705C78.0059 12.0818 77.7547 12.1581 77.5328 12.2897C76.7971 12.7525 76.5002 13.5693 76.6421 14.7417C76.7449 15.5974 77.0418 16.2177 77.5328 16.6026C77.7351 16.778 77.9945 16.8754 78.2637 16.8738C78.5247 16.877 78.7808 16.8007 78.9962 16.6545C79.6177 16.2145 79.9228 15.4821 79.9147 14.4559C79.8918 13.4848 79.5851 12.7752 78.9962 12.327C78.7857 12.1663 78.5296 12.077 78.2637 12.0705Z" fill="#231F20"/>
<path d="M91.6761 0H134.105C135.151 0 135.999 0.844397 135.999 1.88528V28.6006C135.999 38.2105 128.173 46 118.519 46H91.6761C90.6304 46 89.7821 45.1556 89.7821 44.1147V1.88528C89.7821 0.842773 90.6304 0 91.6761 0Z" fill="#5A409B"/>
<path d="M120.88 9.5H123.472C124.96 9.5 126.164 10.7 126.164 12.1793V14.7596C126.164 16.2389 124.959 17.4389 123.472 17.4389H120.88C119.394 17.4389 118.188 16.2389 118.188 14.7596V12.1793C118.188 10.7 119.392 9.5 120.88 9.5Z" fill="#FDCD05"/>
<path d="M111.595 9.5H114.187C115.673 9.5 116.879 10.7 116.879 12.1793V14.7596C116.879 16.2389 115.673 17.4389 114.187 17.4389H111.595C110.109 17.4389 108.903 16.2389 108.903 14.7596V12.1793C108.902 10.7 110.107 9.5 111.595 9.5Z" fill="#FDCD05"/>
<path d="M102.31 9.5H104.902C106.388 9.5 107.594 10.7 107.594 12.1793V14.7596C107.594 16.2389 106.388 17.4389 104.902 17.4389H102.31C100.824 17.4389 99.618 16.2389 99.618 14.7596V12.1793C99.618 10.7 100.824 9.5 102.31 9.5Z" fill="#FDCD05"/>
<path d="M120.88 18.8203H123.472C124.96 18.8203 126.164 20.0203 126.164 21.4996V24.0799C126.164 25.5608 124.959 26.7592 123.472 26.7592H120.88C119.394 26.7592 118.188 25.5592 118.188 24.0799V21.4996C118.188 20.0203 119.392 18.8203 120.88 18.8203Z" fill="#FDCD05"/>
<path d="M111.595 18.8203H114.187C115.673 18.8203 116.879 20.0203 116.879 21.4996V24.0799C116.879 25.5608 115.673 26.7592 114.187 26.7592H111.595C110.109 26.7592 108.903 25.5592 108.903 24.0799V21.4996C108.902 20.0203 110.107 18.8203 111.595 18.8203Z" fill="#FDCD05"/>
<path d="M102.31 18.8203H104.902C106.388 18.8203 107.594 20.0203 107.594 21.4996V24.0799C107.594 25.5608 106.388 26.7592 104.902 26.7592H102.31C100.824 26.7592 99.618 25.5592 99.618 24.0799V21.4996C99.618 20.0203 100.824 18.8203 102.31 18.8203Z" fill="#FDCD05"/>
<path d="M122.173 28.1406C124.376 28.1406 126.162 29.9187 126.162 32.1109C126.162 34.3031 124.376 36.0812 122.173 36.0812C119.971 36.0812 118.184 34.3031 118.184 32.1109C118.186 29.9187 119.971 28.1406 122.173 28.1406Z" fill="#FDCD05"/>
<path d="M111.595 28.1406H114.187C115.673 28.1406 116.879 29.3406 116.879 30.82V33.4002C116.879 34.8812 115.673 36.0796 114.187 36.0796H111.595C110.109 36.0796 108.903 34.8795 108.903 33.4002V30.82C108.902 29.3406 110.107 28.1406 111.595 28.1406Z" fill="#FDCD05"/>
<path d="M102.31 28.1406H104.902C106.388 28.1406 107.594 29.3406 107.594 30.82V33.4002C107.594 34.8812 106.388 36.0796 104.902 36.0796H102.31C100.824 36.0796 99.618 34.8795 99.618 33.4002V30.82C99.618 29.3406 100.824 28.1406 102.31 28.1406Z" fill="#FDCD05"/>
</svg>
