<svg width="12" height="14" viewBox="0 0 12 14" fill="none" xmlns="http://www.w3.org/2000/svg">
<path d="M10.1984 4.20047C11.1925 4.20047 11.9984 3.26016 11.9984 2.10023C11.9984 0.940307 11.1925 0 10.1984 0C9.20432 0 8.39844 0.940307 8.39844 2.10023C8.39844 3.26016 9.20432 4.20047 10.1984 4.20047Z" fill="#5A409B"/>
<path d="M10.68 5.19299C10.668 5.19299 10.656 5.19999 10.644 5.19999C10.584 5.21399 10.524 5.22099 10.458 5.23499C10.206 5.263 9.936 5.24899 9.66 5.18599C9.588 5.16498 9.528 5.15098 9.462 5.12298C9.264 5.06697 9.078 4.97596 8.904 4.85695C8.832 4.81495 8.76 4.75894 8.694 4.70993C8.406 4.47891 8.16 4.19188 7.962 3.85584C7.92 3.77883 7.872 3.69482 7.836 3.61081C7.734 3.40779 7.656 3.19076 7.608 2.95974C7.584 2.88273 7.572 2.81272 7.554 2.72871C7.5 2.40668 7.488 2.09164 7.512 1.79761C7.524 1.7206 7.53 1.65059 7.542 1.58058C7.542 1.56658 7.548 1.55258 7.548 1.53858C7.62 1.10453 7.344 0.698486 6.96 0.698486H3.312C3.228 0.698486 3.144 0.705487 3.066 0.712488C2.994 0.719489 2.928 0.726489 2.856 0.740491C2.784 0.747492 2.712 0.761493 2.646 0.775495C1.2 1.02052 0.276 2.09164 0.0659999 3.78583C0.0539999 3.86284 0.042 3.94685 0.036 4.03086C0.024 4.11487 0.018 4.19188 0.012 4.27589C0.00599999 4.3669 0 4.46491 0 4.56292V10.1355C0 10.2336 0.00599999 10.3316 0.012 10.4226C0.018 10.5066 0.024 10.5836 0.036 10.6676C0.042 10.7516 0.0539999 10.8356 0.0659999 10.9126C0.276 12.6068 1.2 13.6779 2.646 13.923C2.712 13.937 2.784 13.951 2.856 13.958C2.928 13.972 2.994 13.979 3.066 13.986C3.144 13.993 3.228 14 3.312 14H8.088C8.172 14 8.256 13.993 8.334 13.986C8.406 13.979 8.472 13.972 8.544 13.958C8.616 13.951 8.688 13.937 8.754 13.923C10.2 13.6779 11.124 12.6068 11.334 10.9126C11.346 10.8356 11.358 10.7516 11.364 10.6676C11.376 10.5836 11.382 10.5066 11.388 10.4226C11.394 10.3316 11.4 10.2336 11.4 10.1355V5.87906C11.4 5.43101 11.052 5.10898 10.68 5.19299ZM1.04499 7.34923H10.458C10.704 7.34923 10.908 7.58726 10.908 7.87429C10.908 8.16132 10.704 8.39935 10.458 8.39935H1.04499C0.798989 8.39935 0.594989 8.16132 0.594989 7.87429C0.594989 7.58726 0.798989 7.34923 1.04499 7.34923ZM10.458 11.1927L1.04499 11.1857C0.798989 11.1857 0.594989 10.9476 0.594989 10.6606C0.594989 10.3736 0.798989 10.1355 1.04499 10.1355L10.458 10.1425C10.704 10.1425 10.908 10.3806 10.908 10.6676C10.908 10.9546 10.704 11.1927 10.458 11.1927Z" fill="#5A409B"/>
</svg>
