<svg width="13" height="14" viewBox="0 0 13 14" fill="none" xmlns="http://www.w3.org/2000/svg">
<path d="M9.94188 7.90432C9.73188 8.14349 9.61188 8.48766 9.64188 8.85516C9.68688 9.48516 10.1819 9.94599 10.7219 9.94599H11.6719V10.6402C11.6719 11.8477 10.8269 12.8335 9.79187 12.8335H4.05188C3.01688 12.8335 2.17188 11.8477 2.17188 10.6402V6.71434C2.17188 5.50684 3.01688 4.521 4.05188 4.521H9.79187C10.8269 4.521 11.6719 5.50684 11.6719 6.71434V7.55434H10.6619C10.3819 7.55434 10.1269 7.68266 9.94188 7.90432Z" stroke="#5A409B" stroke-width="1.5" stroke-linecap="round" stroke-linejoin="round"/>
<path d="M2.17188 7.23926V4.57345C2.17188 3.87929 2.53688 3.26093 3.09188 3.01593L7.06187 1.26593C7.68187 0.991763 8.34688 1.52845 8.34688 2.30428V4.52094" stroke="#5A409B" stroke-width="1.5" stroke-linecap="round" stroke-linejoin="round"/>
<path d="M12.2013 8.14917V9.35088C12.2013 9.67171 11.9813 9.93418 11.7013 9.94585H10.7213C10.1813 9.94585 9.68628 9.48502 9.64128 8.85502C9.61128 8.48752 9.73128 8.14335 9.94128 7.90418C10.1263 7.68252 10.3813 7.5542 10.6613 7.5542H11.7013C11.9813 7.56587 12.2013 7.82834 12.2013 8.14917Z" stroke="#5A409B" stroke-width="1.5" stroke-linecap="round" stroke-linejoin="round"/>
<path d="M4.42188 7H7.92188" stroke="#5A409B" stroke-width="1.5" stroke-linecap="round" stroke-linejoin="round"/>
</svg>
