<svg width="15" height="18" viewBox="0 0 15 18" fill="none" xmlns="http://www.w3.org/2000/svg">
<path d="M5.03125 7.6051V8.4751H7.06875V6.0376H6.34375C5.61875 6.0376 5.03125 6.7426 5.03125 7.6051Z" fill="#5A409B"/>
<path d="M5.03125 10.3949C5.03125 11.2574 5.61875 11.9624 6.3375 11.9624H7.0625V9.5249H5.03125V10.3949Z" fill="#5A409B"/>
<path d="M7.9375 11.9624H8.6625C9.38125 11.9624 9.96875 11.2574 9.96875 10.3949V9.5249H7.9375V11.9624Z" fill="#5A409B"/>
<path d="M10.1188 1.5H4.88125C2.60625 1.5 1.25 3.1275 1.25 5.8575V12.135C1.25 14.8725 2.60625 16.5 4.88125 16.5H10.1125C12.3875 16.5 13.7437 14.8725 13.7437 12.1425V5.8575C13.75 3.1275 12.3938 1.5 10.1188 1.5ZM10.8438 10.395C10.8438 11.835 9.8625 13.0125 8.6625 13.0125H6.3375C5.1375 13.0125 4.15625 11.8425 4.15625 10.395V7.605C4.15625 6.165 5.1375 4.9875 6.3375 4.9875H8.6625C9.8625 4.9875 10.8438 6.1575 10.8438 7.605V10.395Z" fill="#5A409B"/>
<path d="M8.6625 6.0376H7.9375V8.4826H9.975V7.6126C9.96875 6.7426 9.38125 6.0376 8.6625 6.0376Z" fill="#5A409B"/>
</svg>
