<svg width="12" height="14" viewBox="0 0 12 14" fill="none" xmlns="http://www.w3.org/2000/svg">
<path d="M8.4 0H3.6C1.2 0 0 1.4 0 4.2V13.3C0 13.685 0.27 14 0.6 14H8.4C10.8 14 12 12.6 12 9.8V4.2C12 1.4 10.8 0 8.4 0ZM7.2 9.275H3C2.754 9.275 2.55 9.037 2.55 8.75C2.55 8.463 2.754 8.225 3 8.225H7.2C7.446 8.225 7.65 8.463 7.65 8.75C7.65 9.037 7.446 9.275 7.2 9.275ZM9 5.775H3C2.754 5.775 2.55 5.537 2.55 5.25C2.55 4.963 2.754 4.725 3 4.725H9C9.246 4.725 9.45 4.963 9.45 5.25C9.45 5.537 9.246 5.775 9 5.775Z" fill="#5A409B"/>
</svg>
