<svg width="26" height="27" viewBox="0 0 26 27" fill="none" xmlns="http://www.w3.org/2000/svg">
<path d="M3.85653 14.0551L7.89201 9.13826C8.30381 8.6088 8.50972 8.34404 8.61763 8.04713C8.71311 7.78441 8.75261 7.50463 8.73361 7.22573C8.71213 6.91056 8.58756 6.59915 8.33845 5.97636L7.3882 3.60073C7.01954 2.67908 6.8352 2.21824 6.51722 1.91619C6.23701 1.65002 5.88588 1.47049 5.50605 1.39917C5.07499 1.31822 4.59348 1.43861 3.63046 1.67937L1 2.33707C1 15.7078 10.3591 25.0673 23.7302 25.0673L24.3875 22.4364C24.6283 21.4733 24.7486 20.9919 24.6677 20.5608C24.5963 20.1811 24.4169 19.8298 24.1507 19.5497C23.8487 19.2316 23.3878 19.0474 22.4661 18.6787L20.3462 17.8306C19.6357 17.5465 19.2804 17.4044 18.9262 17.3935C18.6131 17.3839 18.3022 17.4477 18.0182 17.5798C17.6969 17.7294 17.4264 17.9999 16.8853 18.541L12.8028 22.6248M14.3703 6.34828C15.6763 6.60308 16.8765 7.24179 17.8174 8.18266C18.7583 9.12351 19.397 10.3237 19.6517 11.6297M14.3703 1C17.0836 1.30143 19.6137 2.51646 21.5454 4.44564C23.4769 6.37481 24.6951 8.90343 25 11.6163" stroke="#5A409B" stroke-width="2" stroke-linecap="round" stroke-linejoin="round"/>
</svg>
