<svg width="16" height="16" viewBox="0 0 16 16" fill="none" xmlns="http://www.w3.org/2000/svg">
<path d="M13.7087 3.40279C12.6612 3.29869 11.6137 3.22062 10.5597 3.16206V3.15555L10.4166 2.30974C10.319 1.71116 10.1758 0.813293 8.65337 0.813293H6.94873C5.43276 0.813293 5.28963 1.67212 5.18552 2.30323L5.04889 3.13603C4.44381 3.17507 3.83873 3.21411 3.23364 3.27267L1.90636 3.40279C1.6331 3.42882 1.43791 3.66955 1.46394 3.93631C1.48996 4.20306 1.72419 4.39825 1.99745 4.37223L3.32473 4.2421C6.73402 3.90377 10.1693 4.0339 13.6177 4.37873C13.6372 4.37873 13.6502 4.37873 13.6697 4.37873C13.9169 4.37873 14.1317 4.19005 14.1577 3.93631C14.1772 3.66955 13.982 3.42882 13.7087 3.40279Z" fill="white"/>
<path d="M12.5116 5.2961C12.3554 5.13345 12.1407 5.04236 11.9195 5.04236H3.69558C3.47436 5.04236 3.25315 5.13345 3.10351 5.2961C2.95386 5.45876 2.86928 5.67997 2.88229 5.90769L3.28568 12.5831C3.35725 13.5721 3.44834 14.8083 5.71903 14.8083H9.89606C12.1667 14.8083 12.2578 13.5786 12.3294 12.5831L12.7328 5.9142C12.7458 5.67997 12.6612 5.45876 12.5116 5.2961ZM8.88759 11.5486H6.721C6.45424 11.5486 6.23302 11.3274 6.23302 11.0607C6.23302 10.7939 6.45424 10.5727 6.721 10.5727H8.88759C9.15434 10.5727 9.37556 10.7939 9.37556 11.0607C9.37556 11.3274 9.15434 11.5486 8.88759 11.5486ZM9.43411 8.94612H6.18097C5.91422 8.94612 5.693 8.72491 5.693 8.45815C5.693 8.1914 5.91422 7.97018 6.18097 7.97018H9.43411C9.70087 7.97018 9.92208 8.1914 9.92208 8.45815C9.92208 8.72491 9.70087 8.94612 9.43411 8.94612Z" fill="white"/>
</svg>
